<svg width="32" height="32" fill="none" xmlns="http://www.w3.org/2000/svg"><g clip-path="url(#clip0)" fill="#fff"><path d="M16 13.867a3.738 3.738 0 0 0 3.733-3.734A3.738 3.738 0 0 0 16 6.4a3.738 3.738 0 0 0-3.733 3.733A3.738 3.738 0 0 0 16 13.867zm0-6.4a2.67 2.67 0 0 1 2.667 2.666A2.67 2.67 0 0 1 16 12.8a2.67 2.67 0 0 1-2.667-2.667A2.67 2.67 0 0 1 16 7.467z"/><path d="M15.906 29.204l8.181-11.817c3.07-4.091 2.625-10.816-.95-14.39A10.16 10.16 0 0 0 15.907 0a10.16 10.16 0 0 0-7.232 2.996C5.099 6.57 4.654 13.295 7.71 17.37l8.195 11.834zM9.428 3.75a9.103 9.103 0 0 1 6.478-2.683c2.446 0 4.747.953 6.478 2.683 3.226 3.226 3.623 9.3.838 13.013L15.906 27.33 8.577 16.747c-2.773-3.697-2.375-9.771.85-12.997z"/><path d="M22.462 22.937a.533.533 0 0 0-.125 1.06c5.61.66 8.596 2.439 8.596 3.47 0 1.447-5.68 3.466-14.933 3.466-9.252 0-14.933-2.019-14.933-3.466 0-1.031 2.987-2.81 8.595-3.47a.534.534 0 0 0-.124-1.06C3.922 23.598 0 25.461 0 27.467 0 29.719 5.496 32 16 32s16-2.28 16-4.533c0-2.006-3.922-3.869-9.538-4.53z"/></g><defs><clipPath id="clip0"><path fill="#fff" d="M0 0h32v32H0z"/></clipPath></defs></svg>