<svg width="209" height="50" fill="none" xmlns="http://www.w3.org/2000/svg"><g clip-path="url(#clip0)"><path d="M49.476 22.26c-.078-.698-.892-1.223-1.595-1.223-2.274 0-4.292-1.334-5.139-3.4-.863-2.115-.306-4.582 1.388-6.136a1.38 1.38 0 0 0 .151-1.872 24.568 24.568 0 0 0-3.931-3.97 1.382 1.382 0 0 0-1.886.152c-1.48 1.638-4.136 2.247-6.19 1.39a5.512 5.512 0 0 1-3.351-5.387 1.377 1.377 0 0 0-1.218-1.45A24.766 24.766 0 0 0 22.12.349c-.718.08-1.252.7-1.228 1.42.08 2.302-1.283 4.429-3.399 5.295-2.028.829-4.667.225-6.143-1.4a1.383 1.383 0 0 0-1.873-.156 24.67 24.67 0 0 0-4.014 3.97 1.38 1.38 0 0 0 .148 1.885 5.5 5.5 0 0 1 1.387 6.192c-.856 2.04-2.974 3.354-5.4 3.354-.786-.025-1.346.504-1.433 1.22a24.877 24.877 0 0 0-.01 5.642c.078.7.916 1.221 1.627 1.221 2.161-.055 4.235 1.282 5.107 3.4.867 2.115.308 4.58-1.389 6.137a1.378 1.378 0 0 0-.15 1.87 24.658 24.658 0 0 0 3.925 3.972 1.38 1.38 0 0 0 1.89-.15c1.484-1.642 4.14-2.25 6.186-1.391a5.504 5.504 0 0 1 3.358 5.386 1.377 1.377 0 0 0 1.217 1.45 24.59 24.59 0 0 0 5.584.015 1.38 1.38 0 0 0 1.228-1.421c-.084-2.3 1.283-4.428 3.396-5.293 2.042-.834 4.669-.223 6.146 1.398.49.534 1.301.599 1.872.157a24.7 24.7 0 0 0 4.015-3.97 1.378 1.378 0 0 0-.148-1.886 5.498 5.498 0 0 1-1.39-6.19c.843-2.013 2.882-3.364 5.076-3.364l.307.008c.712.058 1.367-.49 1.453-1.217.219-1.866.221-3.763.01-5.643zm-24.66 17.062c-7.901 0-14.307-6.405-14.307-14.307 0-7.901 6.406-14.306 14.307-14.306 7.902 0 14.307 6.405 14.307 14.306 0 2.682-.74 5.19-2.024 7.336l-6.264-6.265a8.749 8.749 0 0 0 .693-3.425 8.712 8.712 0 0 0-2.57-6.202 8.713 8.713 0 0 0-6.2-2.568 8.8 8.8 0 0 0-2.313.309c-.33.09-.6.361-.688.692-.09.337.012.684.276.948 0 0 3.093 3.116 4.127 4.151.109.108.109.367.093.46l-.01.068c-.104 1.138-.305 2.504-.47 3.028l-.067.064-.068.07c-.532.17-1.919.374-3.074.478v-.006l-.052.013a.661.661 0 0 1-.525-.2 2564.516 2564.516 0 0 0-4.048-4.027c-.267-.266-.54-.322-.723-.322-.425 0-.805.307-.925.747a8.8 8.8 0 0 0 2.264 8.498 8.715 8.715 0 0 0 6.202 2.57 8.75 8.75 0 0 0 3.425-.694l6.333 6.333a14.235 14.235 0 0 1-7.699 2.25z" fill="#fff"/></g><path d="M60.55 17.415h-1.809v6.223h-3.138V8.41h3.138v6.098h1.433l3.723-6.098h3.828l-4.696 7.206 5.188 8.022h-3.745l-3.922-6.223zm22.125-1.045c0 1.498-.265 2.813-.795 3.942-.53 1.13-1.29 2.001-2.28 2.615-.983.614-2.112.92-3.388.92-1.263 0-2.389-.303-3.379-.91-.99-.606-1.757-1.47-2.3-2.594-.544-1.129-.82-2.426-.827-3.89V15.7c0-1.5.269-2.817.805-3.954.544-1.143 1.308-2.018 2.291-2.625.99-.613 2.12-.92 3.389-.92 1.269 0 2.395.307 3.378.92.99.607 1.754 1.482 2.29 2.625.544 1.137.816 2.451.816 3.943v.68zm-3.18-.691c0-1.597-.285-2.81-.857-3.64-.572-.83-1.388-1.244-2.447-1.244-1.053 0-1.865.41-2.437 1.234-.572.816-.861 2.015-.868 3.598v.742c0 1.555.285 2.761.857 3.619.572.858 1.395 1.286 2.469 1.286 1.052 0 1.861-.411 2.426-1.234.565-.83.85-2.036.858-3.619v-.742zm18.925 7.959h-3.138v-6.526h-6.118v6.526h-3.138V8.41h3.138v6.17h6.118V8.41h3.138v15.228zm15.776-5.072c-.118 1.638-.725 2.928-1.82 3.87-1.087.94-2.524 1.411-4.309 1.411-1.952 0-3.49-.655-4.612-1.966-1.116-1.318-1.674-3.124-1.674-5.418v-.93c0-1.465.258-2.755.774-3.87.516-1.116 1.252-1.97 2.207-2.563.962-.6 2.078-.9 3.347-.9 1.757 0 3.173.471 4.246 1.413 1.074.941 1.695 2.262 1.862 3.964h-3.138c-.076-.983-.352-1.695-.826-2.134-.467-.446-1.182-.67-2.144-.67-1.046 0-1.83.377-2.353 1.13-.516.746-.781 1.907-.795 3.483v1.15c0 1.646.247 2.849.743 3.609.502.76 1.289 1.14 2.363 1.14.969 0 1.691-.22 2.165-.66.481-.445.757-1.132.826-2.06h3.138zm11.729 1.934h-5.502l-1.046 3.138h-3.336L121.71 8.41h2.907l5.7 15.228h-3.336l-1.056-3.138zm-4.654-2.541h3.807l-1.914-5.7-1.893 5.7zm24.111-9.549v15.228h-3.148V10.951h-4.058l-.251 5.376c-.104 1.813-.334 3.243-.69 4.288-.356 1.04-.875 1.803-1.558 2.291-.684.481-1.618.725-2.803.732h-.816v-2.52l.523-.053c.788-.104 1.349-.558 1.684-1.36.341-.808.557-2.245.648-4.308l.262-6.987h10.207zm18.161 18.972h-2.897v-3.744h-9.183v3.734h-2.97l-.167-6.255h1.15c.621-.515 1.098-1.272 1.433-2.27.342-1.003.572-2.244.69-3.723l.439-6.714h9.978v12.707h1.778l-.251 6.265zm-10.469-6.265h5.805V10.951h-3.86l-.261 4.006c-.209 2.685-.771 4.738-1.684 6.16zM175.648 8.41h3.148v15.228h-3.148V13.524l-6.097 10.114h-3.138V8.41h3.138v10.135l6.097-10.135zm19.333 15.228h-3.138v-6.526h-6.119v6.526h-3.137V8.41h3.137v6.17h6.119V8.41h3.138v15.228zm13.809-12.687h-6.829v12.687h-3.138V8.41h9.967v2.541zM57.218 37.728h-.605v2.067h-.834v-4.85h.834v2.053h.542l1.631-2.053h1.005l-1.919 2.33 2.08 2.52h-1.053l-1.681-2.067zm3.037-.403c0-.475.092-.903.277-1.282.189-.38.449-.672.78-.879a2.139 2.139 0 0 1 1.144-.309c.66 0 1.193.229 1.6.686.41.457.614 1.065.614 1.824v.059c0 .472-.091.896-.274 1.273a2.052 2.052 0 0 1-.775.874c-.335.209-.72.313-1.157.313-.657 0-1.19-.228-1.6-.685-.406-.458-.61-1.063-.61-1.816v-.058zm.833.099c0 .538.124.97.372 1.295.251.326.586.489 1.004.489.422 0 .756-.165 1.005-.493.248-.332.371-.795.371-1.39 0-.532-.127-.962-.38-1.291a1.196 1.196 0 0 0-1.005-.498c-.409 0-.74.163-.99.49-.251.325-.377.791-.377 1.398zm7.322 1.273l1.65-3.752h1.035v4.85h-.829v-3.528l-1.569 3.528h-.573l-1.6-3.604v3.604h-.83v-4.85h1.076l1.64 3.752zm7.896 1.098h-.83V35.63h-2.231v4.164h-.834v-4.85h3.895v4.85zm5.216-4.85v4.85h-.834V35.63h-1.65l-.098 1.815c-.054.834-.195 1.43-.422 1.788-.224.359-.58.546-1.071.56h-.332v-.73l.238-.018c.269-.03.462-.185.578-.466.117-.28.191-.8.224-1.56l.09-2.075h3.276zm3.252 4.939c-.658 0-1.193-.215-1.605-.645-.412-.433-.619-1.012-.619-1.735v-.152c0-.481.091-.91.274-1.287.185-.38.442-.675.77-.887a1.94 1.94 0 0 1 1.077-.323c.63 0 1.12.208 1.47.623.35.416.524 1.01.524 1.784v.345H83.38c.011.479.15.865.416 1.161.27.293.61.44 1.022.44.293 0 .541-.06.745-.18a1.87 1.87 0 0 0 .533-.475l.506.395c-.406.624-1.016.936-1.828.936zm-.103-4.348c-.335 0-.616.123-.843.368-.227.242-.368.583-.422 1.022h2.43v-.063c-.024-.421-.138-.747-.34-.977-.204-.233-.479-.35-.825-.35zm4.377 2.192h-.606v2.067h-.833v-4.85h.834v2.053h.542l1.631-2.053h1.005l-1.919 2.33 2.08 2.52h-1.053l-1.681-2.067zm5.228 1.48c.296 0 .555-.09.776-.27a.946.946 0 0 0 .367-.672h.785a1.5 1.5 0 0 1-.287.794 1.884 1.884 0 0 1-.708.6c-.293.15-.604.224-.933.224-.66 0-1.186-.22-1.577-.659-.389-.442-.583-1.045-.583-1.81v-.14c0-.471.087-.891.26-1.259.173-.367.421-.653.744-.856.326-.203.71-.305 1.152-.305.544 0 .995.163 1.354.489.361.325.554.748.578 1.268h-.785a1.13 1.13 0 0 0-.358-.77 1.096 1.096 0 0 0-.79-.306c-.42 0-.748.153-.98.458-.23.301-.346.74-.346 1.313v.157c0 .559.115.989.345 1.29.23.303.56.454.986.454zm6.731.587h-.829v-2.071H97.95v2.07h-.834v-4.85h.834v2.103h2.228v-2.102h.829v4.85zm1.024-2.47c0-.475.093-.903.278-1.282a2.11 2.11 0 0 1 .78-.879 2.138 2.138 0 0 1 1.143-.309c.66 0 1.194.229 1.6.686.41.457.614 1.065.614 1.824v.059c0 .472-.091.896-.273 1.273a2.04 2.04 0 0 1-.776.874c-.334.209-.72.313-1.156.313-.658 0-1.191-.228-1.6-.685-.407-.458-.61-1.063-.61-1.816v-.058zm.834.099c0 .538.124.97.372 1.295.251.326.586.489 1.004.489.421 0 .756-.165 1.004-.493.248-.332.372-.795.372-1.39 0-.532-.127-.962-.381-1.291a1.197 1.197 0 0 0-1.004-.498c-.409 0-.74.163-.991.49-.251.325-.376.791-.376 1.398zm6.542 2.46c-.657 0-1.192-.215-1.605-.645-.412-.433-.618-1.012-.618-1.735v-.152c0-.481.091-.91.273-1.287a2.15 2.15 0 0 1 .771-.887 1.94 1.94 0 0 1 1.076-.323c.63 0 1.12.208 1.47.623.35.416.524 1.01.524 1.784v.345h-3.285c.012.479.151.865.417 1.161.269.293.609.44 1.022.44.293 0 .541-.06.744-.18.203-.12.381-.278.533-.475l.507.395c-.407.624-1.016.936-1.829.936zm-.103-4.348c-.335 0-.616.123-.843.368-.227.242-.367.583-.421 1.022h2.429v-.063c-.024-.421-.137-.747-.34-.977-.204-.233-.479-.35-.825-.35zm4.832 1.789c0-.475.093-.903.278-1.282a2.11 2.11 0 0 1 .78-.879 2.138 2.138 0 0 1 1.143-.309c.66 0 1.194.229 1.6.686.409.457.614 1.065.614 1.824v.059c0 .472-.091.896-.273 1.273-.18.373-.438.664-.776.874-.334.209-.72.313-1.156.313-.658 0-1.191-.228-1.6-.685-.407-.458-.61-1.063-.61-1.816v-.058zm.834.099c0 .538.124.97.372 1.295.251.326.585.489 1.004.489.421 0 .756-.165 1.004-.493.248-.332.372-.795.372-1.39 0-.532-.127-.962-.381-1.291a1.197 1.197 0 0 0-1.004-.498c-.41 0-.74.163-.991.49-.251.325-.376.791-.376 1.398zm6.658-2.201c.61 0 1.097.204 1.462.614.367.406.551.943.551 1.609v.076c0 .457-.088.867-.264 1.228a1.982 1.982 0 0 1-.762.839 2.173 2.173 0 0 1-1.139.295c-.651 0-1.176-.216-1.573-.65-.398-.436-.596-1.02-.596-1.752v-.404c0-1.019.188-1.828.564-2.429.38-.6.939-.967 1.677-1.098.418-.075.7-.166.847-.274a.522.522 0 0 0 .22-.443h.681c0 .373-.085.664-.256.874-.167.209-.436.357-.806.443l-.619.14c-.493.116-.864.313-1.112.591-.245.275-.405.643-.479 1.103.439-.508.974-.762 1.604-.762zm-.161.681c-.406 0-.729.137-.968.412-.239.272-.359.65-.359 1.134v.072c0 .52.12.933.359 1.237.242.302.568.453.977.453.412 0 .738-.152.977-.457.239-.305.359-.75.359-1.336 0-.457-.121-.823-.363-1.098-.239-.278-.567-.417-.982-.417zm4.96 3.304c.296 0 .554-.09.775-.27a.947.947 0 0 0 .368-.672h.784a1.5 1.5 0 0 1-.287.794 1.88 1.88 0 0 1-.708.6c-.293.15-.603.224-.932.224-.661 0-1.186-.22-1.578-.659-.388-.442-.583-1.045-.583-1.81v-.14c0-.471.087-.891.26-1.259.174-.367.422-.653.744-.856.326-.203.71-.305 1.152-.305.544 0 .995.163 1.354.489.362.325.554.748.578 1.268h-.784a1.132 1.132 0 0 0-.359-.77 1.096 1.096 0 0 0-.789-.306c-.421 0-.748.153-.981.458-.23.301-.345.74-.345 1.313v.157c0 .559.115.989.345 1.29.23.303.559.454.986.454zm6.744-4.263v4.85h-.834V35.63h-1.65l-.098 1.815c-.054.834-.194 1.43-.421 1.788-.225.359-.582.546-1.072.56h-.331v-.73l.237-.018c.269-.03.462-.185.578-.466.117-.28.192-.8.224-1.56l.09-2.075h3.277zm2.826 3.635l1.129-3.635h.888l-1.95 5.598c-.302.807-.781 1.21-1.439 1.21l-.157-.013-.309-.058v-.672l.224.017c.281 0 .499-.056.655-.17.158-.114.288-.321.39-.623l.183-.493-1.73-4.796h.906l1.21 3.635zm6.538-.892h-.583v2.107h-.829v-2.107h-.583l-1.358 2.107h-1.049l1.735-2.51-1.569-2.34h1.004l1.25 2.008h.57v-2.008h.829v2.008h.565l1.259-2.008h1.004l-1.573 2.344 1.735 2.506h-1.049l-1.358-2.107zm6.206-2.743h.829v4.85h-.829v-3.537l-2.237 3.537h-.829v-4.85h.829v3.54l2.237-3.54zm2.144 4.85v-4.85h1.892c.645 0 1.14.113 1.484.34.346.225.52.555.52.991 0 .224-.068.427-.202.61-.135.179-.333.316-.596.412a1.3 1.3 0 0 1 .703.404c.18.2.269.439.269.717 0 .445-.164.786-.493 1.022-.325.236-.787.354-1.385.354h-2.192zm.83-2.13v1.462h1.371c.347 0 .605-.064.776-.193a.637.637 0 0 0 .26-.542c0-.484-.356-.726-1.067-.726h-1.34zm0-.663h1.071c.777 0 1.165-.227 1.165-.681 0-.454-.367-.689-1.102-.704h-1.134v1.385zm7.241 2.793c-.048-.096-.087-.266-.117-.511-.385.4-.845.6-1.38.6-.478 0-.871-.134-1.179-.403a1.321 1.321 0 0 1-.457-1.031c0-.505.191-.896.574-1.174.385-.281.926-.422 1.622-.422h.807v-.38c0-.29-.087-.52-.26-.691-.173-.173-.429-.26-.766-.26-.296 0-.544.075-.745.224-.2.15-.3.33-.3.542h-.834c0-.242.086-.475.256-.699.173-.227.406-.406.699-.538.296-.131.62-.197.973-.197.559 0 .996.14 1.313.422.317.277.481.661.493 1.151v2.233c0 .445.057.8.171 1.062v.072h-.87zm-1.376-.632c.26 0 .506-.067.74-.202.233-.134.401-.31.506-.524v-.995h-.65c-1.016 0-1.524.297-1.524.892 0 .26.087.463.26.61.173.145.396.219.668.219zm7.246.632h-.829v-2.071h-2.228v2.07h-.834v-4.85h.834v2.103h2.228v-2.102h.829v4.85zm4.381-4.85h.83v4.85h-.83v-3.537l-2.236 3.537h-.83v-4.85h.83v3.54l2.236-3.54zm4.082 4.939c-.658 0-1.193-.215-1.605-.645-.412-.433-.619-1.012-.619-1.735v-.152c0-.481.092-.91.274-1.287a2.15 2.15 0 0 1 .771-.887 1.94 1.94 0 0 1 1.076-.323c.63 0 1.12.208 1.47.623.349.416.524 1.01.524 1.784v.345h-3.285c.012.479.151.865.417 1.161.268.293.609.44 1.022.44.292 0 .54-.06.744-.18.203-.12.381-.278.533-.475l.507.395c-.407.624-1.017.936-1.829.936zm-.103-4.348c-.335 0-.616.123-.843.368-.227.242-.368.583-.421 1.022h2.429v-.063c-.024-.421-.137-.747-.341-.977-.203-.233-.478-.35-.824-.35zm7.718.736a.637.637 0 0 0-.26-.538c-.173-.135-.41-.202-.712-.202-.293 0-.538.076-.735.229-.195.152-.292.331-.292.537h-.824c0-.42.176-.766.528-1.035.353-.269.794-.403 1.323-.403.568 0 1.01.122 1.327.367.316.242.475.589.475 1.04a1 1 0 0 1-.198.6 1.34 1.34 0 0 1-.56.436c.565.19.847.567.847 1.13 0 .444-.172.797-.515 1.057-.344.26-.803.39-1.376.39-.559 0-1.021-.136-1.385-.408-.362-.275-.543-.645-.543-1.112h.825c0 .236.105.44.314.61.212.167.475.251.789.251.317 0 .572-.073.766-.22a.683.683 0 0 0 .292-.569c0-.272-.083-.466-.247-.583-.161-.12-.414-.179-.757-.179h-.83v-.7h.901c.565-.014.847-.247.847-.698zm1.863 2.846l.287-.354c.323-.419.506-1.046.551-1.883l.076-1.936h3.125v4.173h.623v2.102h-.83v-1.425h-3.384v1.425h-.829l.004-2.102h.377zm.982 0h2.227V35.71h-1.492l-.05 1.157c-.05.965-.279 1.715-.685 2.25zm7.501.677c-.048-.096-.087-.266-.117-.511-.385.4-.845.6-1.38.6-.478 0-.871-.134-1.179-.403a1.321 1.321 0 0 1-.457-1.031c0-.505.191-.896.573-1.174.386-.281.927-.422 1.623-.422h.807v-.38c0-.29-.087-.52-.26-.691-.173-.173-.429-.26-.767-.26-.295 0-.543.075-.744.224-.2.15-.3.33-.3.542h-.834c0-.242.086-.475.256-.699.173-.227.406-.406.699-.538.296-.131.62-.197.973-.197.559 0 .996.14 1.313.422.317.277.481.661.493 1.151v2.233c0 .445.057.8.171 1.062v.072h-.87zm-1.376-.632c.26 0 .506-.067.739-.202.234-.134.402-.31.507-.524v-.995h-.65c-1.016 0-1.524.297-1.524.892 0 .26.087.463.26.61.173.145.396.219.668.219zm7.246.632h-.83v-2.071h-2.227v2.07h-.834v-4.85h.834v2.103h2.227v-2.102h.83v4.85zm4.381-4.85h.83v4.85h-.83v-3.537l-2.236 3.537h-.83v-4.85h.83v3.54l2.236-3.54zm5.207 0h.829v4.85h-.829v-3.537l-2.237 3.537h-.829v-4.85h.829v3.54l2.237-3.54zm.224-1.766c0 .361-.124.653-.372.874-.245.218-.568.327-.968.327-.401 0-.725-.11-.973-.332-.248-.22-.372-.51-.372-.87h.677c0 .21.056.374.17.494.114.116.279.175.498.175.209 0 .372-.059.488-.175.12-.117.179-.281.179-.493h.673z" fill="#fff"/><defs><clipPath id="clip0"><path fill="#fff" transform="translate(0 .199)" d="M0 0h49.633v49.633H0z"/></clipPath></defs></svg>