<svg width="17" height="17" viewBox="0 0 17 17" fill="none" xmlns="http://www.w3.org/2000/svg">
<g clip-path="url(#clip0)">
<path d="M11.3532 1.94527C8.75986 -0.648099 4.53896 -0.648099 1.94558 1.94527C-0.647226 4.53921 -0.647226 8.75955 1.94558 11.3535C4.25505 13.6624 7.85193 13.9098 10.4436 12.1068C10.4981 12.3649 10.623 12.6111 10.8237 12.8118L14.6004 16.5886C15.1508 17.1378 16.0402 17.1378 16.5878 16.5886C17.1376 16.0388 17.1376 15.1494 16.5878 14.6012L12.811 10.8233C12.6114 10.6243 12.3646 10.499 12.1066 10.4444C13.9106 7.85218 13.6633 4.25587 11.3532 1.94527ZM10.1608 10.1611C8.22466 12.0973 5.0736 12.0973 3.13798 10.1611C1.20293 8.22491 1.20293 5.07441 3.13798 3.13824C5.0736 1.20262 8.22466 1.20262 10.1608 3.13824C12.097 5.07441 12.097 8.22491 10.1608 10.1611Z" fill="white"/>
</g>
<defs>
<clipPath id="clip0">
<rect width="17" height="17" fill="white"/>
</clipPath>
</defs>
</svg>
