<svg width="16" height="15" viewBox="0 0 16 15" fill="none" xmlns="http://www.w3.org/2000/svg">
<path d="M15.2 1.74998H0.8C0.358188 1.74998 0 2.08576 0 2.49998V12.5C0 12.9142 0.358156 13.25 0.8 13.25H15.2C15.6418 13.25 16 12.9142 16 12.5V2.49998C16 2.08579 15.6418 1.74998 15.2 1.74998ZM15.4667 12.5C15.4667 12.6381 15.3473 12.75 15.2 12.75H0.8C0.652719 12.75 0.533344 12.6381 0.533344 12.5V2.49998C0.533344 2.36191 0.652719 2.24999 0.8 2.24999H15.2C15.3473 2.24999 15.4667 2.36191 15.4667 2.49998V12.5Z" fill="black"/>
<path d="M14.6896 2.75091C14.6192 2.74514 14.5491 2.76585 14.495 2.80851L8.34294 7.65349C8.14454 7.80984 7.85494 7.80984 7.65654 7.65349L1.50457 2.80848C1.4316 2.75106 1.33147 2.73448 1.24194 2.765C1.15241 2.79553 1.08704 2.86854 1.07047 2.95652C1.05391 3.0445 1.08866 3.13406 1.16163 3.19148L7.31363 8.03622C7.71013 8.3492 8.28938 8.3492 8.68591 8.03622L14.8379 3.19151C14.8921 3.14888 14.9259 3.08783 14.9321 3.02176C14.9383 2.9557 14.9162 2.89004 14.8707 2.83927C14.8252 2.78844 14.7601 2.75668 14.6896 2.75091Z" fill="black"/>
<path d="M5.12887 8.00185C5.03447 7.9821 4.93609 8.01181 4.87172 8.07949L1.13837 11.8295C1.07081 11.8944 1.046 11.9885 1.07356 12.0753C1.10112 12.1623 1.17672 12.2284 1.27109 12.2481C1.3655 12.2679 1.46387 12.2382 1.52825 12.1705L5.26159 8.42047C5.32915 8.35561 5.35397 8.26151 5.3264 8.17461C5.29884 8.08772 5.22328 8.0216 5.12887 8.00185Z" fill="black"/>
<path d="M11.1279 8.07949C11.0635 8.01181 10.9651 7.9821 10.8707 8.00185C10.7763 8.0216 10.7007 8.08772 10.6732 8.17461C10.6456 8.26154 10.6704 8.35561 10.738 8.42047L14.4713 12.1705C14.5726 12.2677 14.7381 12.2713 14.844 12.1786C14.95 12.0859 14.9576 11.9309 14.8612 11.8295L11.1279 8.07949Z" fill="black"/>
</svg>
