<?xml version="1.0" standalone="no"?>
<!DOCTYPE svg PUBLIC "-//W3C//DTD SVG 1.1//EN" "http://www.w3.org/Graphics/SVG/1.1/DTD/svg11.dtd" >
<svg xmlns="http://www.w3.org/2000/svg" xmlns:xlink="http://www.w3.org/1999/xlink" version="1.1">
<metadata>
Created by FontForge 20170731 at Mon Oct 13 15:19:46 1997
 By ,,,
a_FuturaRound *Arsenal Company (c) 1997* FAX: (095)924-3775; e-Mail: arsenal@itco.msk.su; Phone: (095)924-5811 (Design and Featuring W.Chufarofsky)
</metadata>
<defs>
<font id="AFuturaRoundBold" horiz-adv-x="616" >
  <font-face 
    font-family="a_FuturaRound"
    font-weight="700"
    font-stretch="normal"
    units-per-em="1000"
    panose-1="2 15 8 2 2 2 4 2 2 4"
    ascent="800"
    descent="-200"
    x-height="546"
    cap-height="730"
    bbox="-46 -242 1154 959"
    underline-thickness="81"
    underline-position="-300"
    unicode-range="U+0020-2122"
  />
<missing-glyph horiz-adv-x="500" 
d="M63 0v959h375v-959h-375zM125 63h250v834h-250v-834z" />
    <glyph glyph-name=".notdef" horiz-adv-x="500" 
d="M63 0v959h375v-959h-375zM125 63h250v834h-250v-834z" />
    <glyph glyph-name=".null" horiz-adv-x="0" 
 />
    <glyph glyph-name="nonmarkingreturn" horiz-adv-x="340" 
 />
    <glyph glyph-name="space" unicode=" " horiz-adv-x="340" 
 />
    <glyph glyph-name="exclam" unicode="!" horiz-adv-x="304" 
d="M63 69q0 37 26 63t63 26t63 -26t26 -63t-26 -64t-63 -27t-63 27t-26 64zM232 332q0 -118 -80 -118t-80 118v301q0 118 80 118t80 -118v-301z" />
    <glyph glyph-name="quotedbl" unicode="&#x22;" horiz-adv-x="340" 
d="M203 677q0 19 14.5 31.5t34.5 12.5t34 -12t14 -32v-192q0 -45 -48 -45q-20 0 -34.5 12.5t-14.5 32.5v192zM40 677q0 20 14 32t34 12q49 0 49 -44v-192q0 -45 -49 -45q-48 0 -48 45v192z" />
    <glyph glyph-name="numbersign" unicode="#" horiz-adv-x="735" 
d="M589 396l-22 -97q65 0 78 -3q41 -11 41 -56q0 -58 -77 -58h-68l-25 -111q-18 -81 -73 -81q-71 0 -71 72q0 25 22 120h-128l-25 -111q-18 -81 -74 -81q-71 0 -71 72q0 25 22 120q-62 0 -77 4q-41 10 -41 54q0 59 78 59h66l23 97h-62q-77 0 -77 59q0 57 78 57h87l31 143
q17 80 71 80q29 0 50 -12q27 -15 27 -41q0 -20 -8 -56l-25 -114h130l32 143q18 80 70 80q28 0 49 -12q26 -15 26 -41q0 -27 -6 -56l-24 -114q64 0 77 -3q42 -11 42 -54q0 -59 -77 -59h-69zM443 396h-130l-21 -97h129z" />
    <glyph glyph-name="dollar" unicode="$" 
d="M259 -20q-103 10 -157 44t-54 74q0 36 23 55t59 19q21 0 78 -18t100 -18q33 0 57.5 20.5t24.5 53.5q0 44 -34 64q-30 18 -93 37q-99 30 -145 67q-62 52 -62 140q0 89 58 151q55 58 145 76v52q0 55 41 55q26 0 34 -16q7 -11 7 -39v-48q67 -5 113 -25q67 -29 67 -82
q0 -71 -75 -71q-23 0 -65.5 13t-65.5 13q-32 0 -55 -15q-26 -17 -26 -48q0 -20 9 -32q12 -17 57 -33q34 -10 67 -21q201 -68 201 -222q0 -98 -64 -164t-163 -78v-68q0 -57 -41 -57t-41 57v64z" />
    <glyph glyph-name="percent" unicode="%" horiz-adv-x="718" 
d="M10 576q0 66 45.5 114.5t111.5 48.5q67 0 112 -47.5t45 -115.5q0 -67 -45 -115t-112 -48q-66 0 -111.5 48t-45.5 115zM115 576q0 -21 15.5 -37.5t36.5 -16.5q22 0 38 16t16 38q0 23 -15.5 38.5t-38.5 15.5q-22 0 -37 -16t-15 -38zM393 154q0 66 45.5 114.5t111.5 48.5
q67 0 112 -47.5t45 -115.5q0 -67 -45 -115t-112 -48q-66 0 -111.5 48t-45.5 115zM498 154q0 -21 15.5 -37.5t36.5 -16.5q23 0 38 15.5t15 38.5q0 24 -14.5 39t-38.5 15q-22 0 -37 -16t-15 -38zM174 -17q-25 0 -42 17t-17 42q0 24 25 68l330 577q33 57 72 57q61 0 61 -51
q0 -26 -20 -61l-338 -591q-33 -58 -71 -58z" />
    <glyph glyph-name="ampersand" unicode="&#x26;" horiz-adv-x="703" 
d="M496 61q-91 -83 -231 -83q-101 0 -171 62q-73 64 -73 164q0 143 168 225q-70 75 -70 150q0 82 67 129q60 43 145 43q86 0 146 -45q65 -50 65 -134q0 -112 -124 -187l99 -118q40 48 66.5 73.5t53.5 25.5t44.5 -20.5t17.5 -48.5q0 -46 -92 -134q33 -39 41 -50
q22 -33 22 -59q0 -29 -20 -49t-49 -20q-39 0 -105 76zM411 167l-135 154q-90 -41 -90 -114q0 -43 27.5 -69t70.5 -26q65 0 127 55zM329 484q81 33 81 88q0 26 -22.5 44.5t-49.5 18.5q-26 0 -46.5 -17.5t-20.5 -42.5q0 -39 58 -91z" />
    <glyph glyph-name="quotesingle" unicode="'" horiz-adv-x="177" 
d="M40 677q0 20 14 32t34 12q49 0 49 -44v-192q0 -45 -49 -45q-48 0 -48 45v192z" />
    <glyph glyph-name="parenleft" unicode="(" horiz-adv-x="333" 
d="M212 334q0 -125 37 -258q11 -34 21 -69q15 -48 15 -66q0 -63 -63 -63q-47 0 -78 73q-72 172 -72 383q0 97 17 190q33 180 85 242q20 24 48 24q63 0 63 -64q0 -18 -15 -66q-10 -34 -21 -68q-37 -133 -37 -258z" />
    <glyph glyph-name="parenright" unicode=")" horiz-adv-x="333" 
d="M121 334q0 129 -37 258q-11 34 -22 69q-15 51 -15 65q0 64 64 64q46 0 77.5 -73t52 -174t20.5 -209q0 -97 -17 -189q-34 -182 -85 -243q-20 -24 -48 -24q-64 0 -64 63q0 16 15 66l22 70q37 129 37 257z" />
    <glyph glyph-name="asterisk" unicode="*" 
d="M268 486q-21 -17 -41 -35q-26 -19 -48 -19q-19 0 -33.5 16.5t-14.5 35.5q0 45 98 70q-98 29 -98 71q0 19 14.5 35.5t33.5 16.5q23 0 48 -19q20 -17 41 -34q-1 9 -6 36q-4 22 -4 35q0 56 50 56q51 0 51 -55q0 -14 -5 -36q-5 -26 -6 -36q21 17 41 34q26 19 48 19
q20 0 34 -16t14 -36q0 -42 -98 -71q98 -26 98 -70q0 -20 -14 -36t-34 -16t-47 20l-42 34q1 -10 6 -36q5 -22 5 -36q0 -56 -51 -56q-50 0 -50 56q0 13 4 36q5 27 6 36z" />
    <glyph glyph-name="plus" unicode="+" horiz-adv-x="855" 
d="M377 356v212q0 44 50 44q51 0 51 -44v-212h206q44 0 44 -50q0 -49 -44 -49h-206v-213q0 -44 -51 -44q-50 0 -50 44v213h-206q-44 0 -44 49q0 50 44 50h206z" />
    <glyph glyph-name="comma" unicode="," horiz-adv-x="237" 
d="M32 -154q-27 0 -47.5 19t-20.5 46q0 22 16 51l82 148q31 56 71 56q29 0 48.5 -17.5t19.5 -45.5q0 -24 -16 -53l-81 -148q-31 -56 -72 -56z" />
    <glyph glyph-name="hyphen" unicode="-" horiz-adv-x="439" 
d="M115 215q-80 0 -80 70t81 70h208q81 0 81 -71q0 -69 -82 -69h-208z" />
    <glyph glyph-name="hyphen" unicode="&#x2010;" horiz-adv-x="439" 
d="M115 215q-80 0 -80 70t81 70h208q81 0 81 -71q0 -69 -82 -69h-208z" />
    <glyph glyph-name="period" unicode="." horiz-adv-x="237" 
d="M26 86q0 39 27 66.5t66 27.5q40 0 66.5 -27t26.5 -67q0 -39 -27 -66t-66 -27t-66 27t-27 66z" />
    <glyph glyph-name="slash" unicode="/" horiz-adv-x="380" 
d="M22 -24q-28 0 -48 18.5t-20 46.5q0 23 14 49l319 603q32 60 72 60q28 0 48 -18t20 -46q0 -22 -15 -50l-319 -603q-32 -60 -71 -60z" />
    <glyph glyph-name="zero" unicode="0" 
d="M21 364q0 162 60 263q74 124 226 124q153 0 227 -123q61 -101 61 -264t-61 -263q-74 -123 -227 -123q-151 0 -225 123q-61 101 -61 263zM308 598q-71 0 -102 -86q-21 -59 -21 -146q0 -88 21 -147q30 -87 102 -87t102 87q21 59 21 147q0 232 -123 232z" />
    <glyph glyph-name="one" unicode="1" 
d="M399 154h86q74 0 74 -77t-74 -77h-346q-74 0 -74 77t74 77h92v429q-62 0 -78 5q-40 11 -40 57q0 24 22 43q60 51 195 51q25 0 36 -3q25 -7 31 -54q2 -12 2 -70v-458z" />
    <glyph glyph-name="two" unicode="2" 
d="M563 77q0 -77 -118 -77h-295q-100 0 -100 77q0 31 36 72q60 66 119 132q72 80 115 137q48 64 48 108q0 30 -16.5 49.5t-46.5 19.5q-31 0 -53 -26q-13 -17 -30 -57.5t-28 -54.5q-17 -21 -49 -21q-37 0 -59.5 24.5t-22.5 61.5q0 29 13 66q25 73 90.5 118t143.5 45
q101 0 166 -57q68 -60 68 -160q0 -90 -91 -208q-46 -58 -161 -172h153q118 0 118 -77z" />
    <glyph glyph-name="three" unicode="3" 
d="M439 401q122 -62 122 -186q0 -105 -79 -173q-75 -64 -182 -64q-94 0 -170 53q-84 59 -84 150q0 29 22 54t51 25q32 0 59 -33q23 -30 47 -61q32 -33 77 -33q39 0 63.5 27.5t24.5 66.5q0 45 -33 65q-20 12 -73 21q-69 12 -69 74q0 34 18 51q15 14 51 22q77 18 77 75
q0 63 -60 63q-43 0 -74 -24q-2 -1 -43 -44q-23 -24 -47 -24q-29 0 -49 20.5t-20 49.5q0 30 19 62q30 52 94 83q60 30 123 30q89 0 154 -56t65 -144q0 -89 -84 -150z" />
    <glyph glyph-name="four" unicode="4" 
d="M496 164v-84q0 -89 -81 -89q-71 0 -71 94v79h-217q-44 0 -74 23.5t-30 66.5q0 58 50 138l169 269q50 79 124 79q68 0 102 -53q28 -44 28 -115v-267q80 0 80 -71q0 -70 -80 -70zM172 305h172v278z" />
    <glyph glyph-name="five" unicode="5" 
d="M270 489q39 9 71 9q99 0 161 -73q59 -69 59 -169q0 -120 -78.5 -199t-198.5 -79q-47 0 -91 13q-54 16 -93 47q-49 38 -49 86q0 31 19.5 52.5t49.5 21.5q23 0 73.5 -31t88.5 -31q45 0 74.5 32.5t29.5 77.5q0 46 -23.5 74.5t-68.5 28.5q-23 0 -62 -13t-61 -13q-64 0 -64 72
q0 17 5 57l24 190q7 54 31 72q21 16 77 16h203q106 0 106 -77q0 -76 -100 -76h-172z" />
    <glyph glyph-name="six" unicode="6" 
d="M306 466q44 5 58 5q92 0 152 -73q57 -68 57 -162q0 -111 -80 -184.5t-193 -73.5t-185 75t-72 189q0 157 171 371q112 140 164 140q32 0 56 -22.5t24 -54.5q0 -27 -38 -73q-29 -32 -57.5 -64t-56.5 -73zM213 234q0 -40 27 -71t67 -31t67 31t27 71q0 41 -26.5 70.5
t-67.5 29.5t-67.5 -29.5t-26.5 -70.5z" />
    <glyph glyph-name="seven" unicode="7" 
d="M376 577h-226q-100 0 -100 77q0 76 100 76h298q121 0 121 -91q0 -25 -17 -62l-241 -521q-36 -78 -87 -78q-35 0 -60.5 23.5t-25.5 58.5q0 27 22 72z" />
    <glyph glyph-name="eight" unicode="8" 
d="M141 399q-67 59 -67 146q0 92 72 151q68 55 162 55q95 0 162 -54q72 -59 72 -152q0 -88 -67 -146q98 -63 98 -182q0 -107 -80 -175q-76 -64 -185 -64t-185 64q-80 68 -80 175q0 120 98 182zM209 232q0 -41 29 -73t70 -32q43 0 71 31t28 74q0 44 -28 75t-71 31
q-42 0 -70.5 -31.5t-28.5 -74.5zM233 530q0 -30 22.5 -53.5t52.5 -23.5q32 0 54 22.5t22 54.5t-22 55t-54 23t-53.5 -23t-21.5 -55z" />
    <glyph glyph-name="nine" unicode="9" 
d="M403 497q0 41 -27 71t-67 30t-67 -30t-27 -71t27 -71t67 -30t67 30t27 71zM310 265q-48 -5 -53 -5q-93 0 -154 70q-60 67 -60 161q0 113 79.5 187t193.5 74t185 -74t71 -189q0 -158 -171 -372q-112 -140 -163 -140q-31 0 -55.5 23.5t-24.5 54.5q0 29 48 83q37 40 104 127
z" />
    <glyph glyph-name="colon" unicode=":" horiz-adv-x="237" 
d="M26 86q0 39 27 66.5t66 27.5q40 0 66.5 -27t26.5 -67q0 -39 -27 -66t-66 -27t-66 27t-27 66zM26 397q0 38 27.5 65.5t65.5 27.5q39 0 66 -27t27 -66t-27 -66t-66 -27t-66 27t-27 66z" />
    <glyph glyph-name="semicolon" unicode=";" horiz-adv-x="237" 
d="M26 397q0 38 27.5 65.5t65.5 27.5q39 0 66 -27t27 -66t-27 -66t-66 -27t-66 27t-27 66zM32 -154q-27 0 -47.5 19t-20.5 46q0 22 16 51l82 148q31 56 71 56q29 0 48.5 -17.5t19.5 -45.5q0 -24 -16 -53l-81 -148q-31 -56 -72 -56z" />
    <glyph glyph-name="less" unicode="&#x3c;" horiz-adv-x="855" 
d="M261 308v-4l414 -168q19 -8 24 -18.5t5 -34.5q0 -43 -44 -43q-20 0 -42 9l-441 182q-63 26 -63 75q0 50 63 76l441 181q24 10 45 10q41 0 41 -42q0 -43 -29 -55z" />
    <glyph glyph-name="equal" unicode="=" horiz-adv-x="855" 
d="M127 414q0 20 13.5 35t33.5 15h508q20 0 33 -15t13 -35t-13 -35t-33 -15h-508q-20 0 -33.5 15t-13.5 35zM127 198q0 21 13.5 35.5t33.5 14.5h508q21 0 33.5 -14.5t12.5 -35.5t-12.5 -35t-33.5 -14h-508q-20 0 -33.5 14.5t-13.5 34.5z" />
    <glyph glyph-name="greater" unicode="&#x3e;" horiz-adv-x="855" 
d="M594 304v4l-413 168q-30 12 -30 55q0 42 41 42q21 0 45 -10l442 -181q33 -13 45 -27q17 -18 17 -49t-17 -48q-13 -14 -45 -27l-442 -182q-22 -9 -42 -9q-44 0 -44 43q0 41 30 53z" />
    <glyph glyph-name="question" unicode="?" horiz-adv-x="523" 
d="M147 69q0 37 26.5 63t63.5 26t63 -26t26 -63t-26 -64t-63 -27t-63.5 27t-26.5 64zM158 293v64q0 28 8 43q10 19 52 31q54 15 69 25q34 22 34 70q0 30 -20.5 48.5t-51.5 18.5q-48 0 -97 -52t-80 -52q-30 0 -48.5 22.5t-18.5 52.5q0 56 47 103q40 40 99 63q45 17 98 17
q103 0 174 -62q73 -65 73 -167q0 -84 -48.5 -142t-131.5 -73q0 -104 -80 -104q-78 0 -78 94z" />
    <glyph glyph-name="at" unicode="@" horiz-adv-x="1027" 
d="M510 511q67 0 111 -33q17 33 51 33q22 0 37 -13.5t15 -35.5v-240q0 -75 58 -75q63 0 86 55q21 51 21 162q0 152 -112 228q-96 64 -256 64q-180 0 -280 -93q-103 -96 -103 -274q0 -177 102 -271q99 -92 278 -92q83 0 164 25q23 8 45 16q28 9 47 9q37 0 37 -45
q0 -30 -88 -58q-59 -18 -117 -26q-49 -7 -85 -7q-209 0 -340 119q-136 123 -136 330q0 208 135 332q131 121 341 121q108 0 192 -26q126 -39 196 -127q74 -92 74 -221q0 -300 -221 -300q-33 0 -69 17.5t-49 44.5q-62 -62 -155 -62q-86 0 -140 69q-50 64 -50 152
q0 90 60.5 156t150.5 66zM417 289q0 -52 20 -87q25 -43 73 -43q103 0 103 135q0 126 -97 126q-52 0 -78 -41q-21 -35 -21 -90z" />
    <glyph glyph-name="A" unicode="A" horiz-adv-x="642" 
d="M325 740q89 0 123 -96l184 -525q12 -34 12 -52q0 -34 -24 -55t-58 -21q-63 0 -88 79l-27 86h-258l-30 -92q-24 -73 -80 -73q-35 0 -57 21.5t-22 56.5q0 26 8 48l190 515q40 108 127 108zM320 559l-83 -256h165l-80 256h-2z" />
    <glyph glyph-name="B" unicode="B" horiz-adv-x="632" 
d="M178 0q-63 0 -88 21.5t-25 83.5v508q0 65 25 91t90 26h136q99 0 168 -41q84 -49 84 -141q0 -119 -86 -161v-3q64 -20 92 -58.5t28 -105.5q0 -111 -77 -169q-68 -51 -183 -51h-164zM231 315v-172h83q53 0 79 14q34 19 34 68q0 57 -33 76q-24 14 -83 14h-80zM231 588v-143
h72q49 0 69 12q28 16 28 60q0 71 -97 71h-72z" />
    <glyph glyph-name="C" unicode="C" horiz-adv-x="602" 
d="M376 -9q-161 0 -257 107q-91 103 -91 266q0 160 94 265q98 110 256 110q50 0 87 -9q47 -11 82 -34q45 -31 45 -70q0 -29 -20 -50.5t-49 -21.5q-25 0 -62 14.5t-82 14.5q-87 0 -134 -71q-41 -61 -41 -152q0 -92 43 -149q48 -64 137 -64q39 0 87 18t64 18q28 0 47 -22
t19 -50q0 -23 -16 -45q-55 -75 -209 -75z" />
    <glyph glyph-name="D" unicode="D" horiz-adv-x="716" 
d="M313 730q138 0 218 -51q75 -48 116 -133q39 -80 39 -173q0 -168 -93 -269q-96 -104 -263 -104h-152q-63 0 -88 21.5t-25 83.5v508q0 65 25 91t90 26h133zM231 154h76q198 0 198 220q0 201 -201 201h-73v-421z" />
    <glyph glyph-name="E" unicode="E" horiz-adv-x="518" 
d="M367 730q118 0 118 -78q0 -77 -118 -77h-136v-130h117q118 0 118 -77t-118 -77h-117v-137h141q118 0 118 -77t-118 -77h-194q-63 0 -88 21.5t-25 83.5v508q0 65 25 91t90 26h187z" />
    <glyph glyph-name="F" unicode="F" horiz-adv-x="501" 
d="M367 730q118 0 118 -78q0 -77 -118 -77h-136v-130h117q118 0 118 -77t-118 -77h-117v-182q0 -118 -83 -118t-83 118v504q0 65 25 91t90 26h187z" />
    <glyph glyph-name="G" unicode="G" horiz-adv-x="722" 
d="M468 437h120q59 0 86 -24.5t27 -82.5q0 -151 -91 -245t-241 -94q-157 0 -251 111q-90 105 -90 264q0 168 96 270.5t263 102.5q71 0 134 -20q77 -25 110 -73q18 -26 18 -52q0 -30 -20 -53t-49 -23q-17 0 -79.5 33.5t-118.5 33.5q-89 0 -137 -66q-42 -57 -42 -150t41 -154
q48 -70 137 -70q65 0 104.5 38t39.5 103q-86 0 -107 5q-64 14 -64 70q0 76 114 76z" />
    <glyph glyph-name="H" unicode="H" horiz-adv-x="768" 
d="M231 295v-186q0 -118 -83 -118t-83 118v512q0 118 83 118t83 -118v-172h306v172q0 118 83 118t83 -118v-512q0 -118 -83 -118t-83 118v186h-306z" />
    <glyph glyph-name="I" unicode="I" horiz-adv-x="304" 
d="M235 109q0 -118 -83 -118t-83 118v512q0 118 83 118t83 -118v-512z" />
    <glyph glyph-name="J" unicode="J" horiz-adv-x="330" 
d="M256 12q0 -68 -49 -114t-118 -46q-132 0 -132 77q0 36 16 54q14 15 55.5 16.5t51 11t9.5 44.5v566q0 118 81 118q86 0 86 -118v-609z" />
    <glyph glyph-name="K" unicode="K" horiz-adv-x="638" 
d="M65 109v512q0 118 83 118t83 -118v-159l212 218q57 59 91 59q32 0 57 -23t25 -55q0 -23 -24 -51l-42 -42l-168 -167l223 -251q42 -47 42 -82q0 -30 -23.5 -53.5t-53.5 -23.5q-40 0 -90 58l-220 256l-29 -24v-172q0 -118 -83 -118t-83 118z" />
    <glyph glyph-name="L" unicode="L" horiz-adv-x="473" 
d="M65 621q0 118 83 118t83 -118v-467h141q118 0 118 -77t-118 -77h-194q-63 0 -88 21.5t-25 83.5v516z" />
    <glyph glyph-name="M" unicode="M" horiz-adv-x="897" 
d="M447 231h4l96 410q10 43 42.5 70.5t76.5 27.5q50 0 86 -32t44 -82l80 -498q6 -37 6 -56q0 -80 -75 -80q-44 0 -64 34q-14 22 -22 73l-63 399h-2l-94 -369q-15 -57 -34 -82q-28 -35 -79 -35t-79 35q-19 24 -34 82l-95 369h-2l-62 -399q-8 -52 -22 -74q-21 -33 -65 -33
q-75 0 -75 80q0 12 7 56l80 498q8 50 43.5 82t85.5 32q45 0 76.5 -27t42.5 -71z" />
    <glyph glyph-name="N" unicode="N" horiz-adv-x="768" 
d="M148 -9q-83 0 -83 118v518q0 112 77 112q47 0 88 -54l307 -406v342q0 118 83 118t83 -118v-531q0 -103 -76 -103q-50 0 -95 60l-301 398v-336q0 -118 -83 -118z" />
    <glyph glyph-name="O" unicode="O" horiz-adv-x="759" 
d="M30 364q0 164 92 267q95 108 257 108q163 0 258 -107q92 -103 92 -268q0 -164 -92 -267q-96 -106 -258 -106t-257 107q-92 102 -92 266zM206 362q0 -90 41 -149q46 -69 132 -69t133 68q41 60 41 150q0 93 -39 153q-47 71 -135 71t-134 -71q-39 -60 -39 -153z" />
    <glyph glyph-name="P" unicode="P" horiz-adv-x="622" 
d="M231 385h72q114 0 114 97q0 95 -114 95h-72v-192zM148 -9q-83 0 -83 118v504q0 65 25 91t90 26h150q121 0 192 -63q75 -66 75 -185q0 -118 -68 -183t-186 -65h-112v-125q0 -118 -83 -118z" />
    <glyph glyph-name="Q" unicode="Q" horiz-adv-x="756" 
d="M377 739q163 0 258 -107q92 -103 92 -268q0 -130 -64 -229l50 -46q35 -32 35 -70q0 -29 -20 -49.5t-49 -20.5q-31 0 -69 30q-2 2 -56 53q-68 -41 -177 -41q-162 0 -257 107q-92 102 -92 266t92 267q95 108 257 108zM432 153q-46 42 -46 74q0 28 17.5 47.5t44.5 19.5
q31 0 81 -48q22 56 22 116q0 93 -39 153q-47 71 -135 71t-134 -71q-39 -60 -39 -153q0 -91 41 -150q47 -67 134 -67q31 0 53 8z" />
    <glyph glyph-name="R" unicode="R" horiz-adv-x="613" 
d="M231 399h77q106 0 106 91q0 87 -104 87h-79v-178zM231 289v-180q0 -118 -83 -118t-83 118v504q0 65 25 91t90 26h129q120 0 194 -52q84 -60 84 -176q0 -81 -46.5 -132.5t-127.5 -64.5l131 -146q49 -55 49 -95q0 -34 -22.5 -56t-56.5 -22q-42 0 -89 59z" />
    <glyph glyph-name="S" unicode="S" horiz-adv-x="552" 
d="M531 229q0 -113 -84 -178q-76 -60 -192 -60q-60 0 -115 16q-68 19 -98 56q-17 21 -17 42q0 34 23 53t57 19q18 0 76 -17q62 -18 97 -18q34 0 57.5 19.5t23.5 52.5q0 43 -33 62q-29 17 -92 36q-96 29 -140 66q-61 50 -61 136q0 105 78 167q73 58 180 58q90 0 142.5 -31
t52.5 -73q0 -69 -74 -69q-22 0 -61.5 12.5t-64.5 12.5q-32 0 -54 -14q-25 -16 -25 -47q0 -18 9 -31q12 -17 55 -33l64 -20q93 -32 138 -75q58 -55 58 -142z" />
    <glyph glyph-name="T" unicode="T" horiz-adv-x="485" 
d="M159 575q-90 0 -112 5q-68 14 -68 72q0 78 119 78h289q118 0 118 -78q0 -58 -68 -72q-22 -5 -112 -5v-466q0 -118 -83 -118t-83 118v466z" />
    <glyph glyph-name="U" unicode="U" horiz-adv-x="756" 
d="M65 326v295q0 118 83 118t83 -118v-276q0 -194 147 -194t147 194v276q0 118 83 118t83 -118v-295q0 -154 -79 -242q-82 -93 -234 -93t-234 93q-79 88 -79 242z" />
    <glyph glyph-name="V" unicode="V" horiz-adv-x="591" 
d="M-13 656q0 37 23 60t60 23q52 0 79 -72l154 -414l143 408q27 78 85 78q78 0 78 -77q0 -29 -11 -57l-216 -549q-27 -68 -84 -68q-54 0 -79 62l-223 559q-9 23 -9 47z" />
    <glyph glyph-name="W" unicode="W" horiz-adv-x="938" 
d="M244 -9q-89 0 -114 110l-117 510q-6 26 -6 51q0 35 24 56t60 21q66 0 80 -72l88 -464l121 466q18 70 92 70q73 0 91 -72l119 -464l87 453q16 83 84 83q36 0 59 -21t23 -56q0 -25 -6 -49l-127 -512q-15 -59 -35 -81q-25 -29 -80 -29q-87 0 -111 93l-109 417l-103 -408
q-26 -102 -120 -102z" />
    <glyph glyph-name="X" unicode="X" horiz-adv-x="594" 
d="M61 -9q-28 0 -51.5 22t-23.5 50q0 34 37 84l177 240l-133 194q-37 54 -37 82q0 34 23 55t57 21q44 0 86 -64l101 -153l106 155q42 62 89 62q29 0 51 -21.5t22 -50.5q0 -31 -38 -86l-134 -194l178 -241q38 -51 38 -84q0 -29 -23 -50t-53 -21q-47 0 -90 61l-148 208
l-147 -207q-44 -62 -87 -62z" />
    <glyph glyph-name="Y" unicode="Y" horiz-adv-x="530" 
d="M486 739q29 0 51 -22.5t22 -51.5t-39 -84l-168 -238v-235q0 -117 -83 -117t-83 117v235l-169 238q-37 52 -37 84t24 53t57 21q40 0 85 -64l124 -178l126 180q43 62 90 62z" />
    <glyph glyph-name="Z" unicode="Z" horiz-adv-x="546" 
d="M563 77q0 -77 -118 -77h-336q-115 0 -115 83q0 40 46 101l298 395h-215q-118 0 -118 75q0 76 118 76h294q60 0 87 -11q44 -17 44 -67q0 -40 -48 -105l-291 -393h236q118 0 118 -77z" />
    <glyph glyph-name="bracketleft" unicode="[" horiz-adv-x="333" 
d="M248 772q80 0 80 -54q0 -43 -48 -53q-14 -3 -81 -3v-704q65 0 80 -3q49 -11 49 -53q0 -54 -81 -54h-73q-63 0 -87 21q-27 23 -27 84v702q0 65 25 91t90 26h73z" />
    <glyph glyph-name="backslash" unicode="\" horiz-adv-x="380" 
d="M-46 689q0 28 20 46t48 18q39 0 71 -60l319 -603q15 -28 15 -49q0 -28 -20.5 -46.5t-48.5 -18.5q-40 0 -72 60l-318 603q-14 27 -14 50z" />
    <glyph glyph-name="bracketright" unicode="]" horiz-adv-x="333" 
d="M84 772h74q66 0 90.5 -25.5t24.5 -91.5v-702q0 -62 -25 -83.5t-88 -21.5h-75q-80 0 -80 54q0 42 48 52q17 4 80 4v704q-66 0 -81 3q-47 10 -47 53q0 54 79 54z" />
    <glyph glyph-name="asciicircum" unicode="^" 
d="M308 570l-107 -64q-32 -19 -57 -19t-41.5 18.5t-16.5 44.5q0 38 37 67l135 105q23 18 50 18t50 -18l135 -105q37 -29 37 -67q0 -27 -16 -45t-42 -18q-25 0 -57 19z" />
    <glyph glyph-name="underscore" unicode="_" horiz-adv-x="526" 
d="M0 -140h526v-102h-526v102z" />
    <glyph glyph-name="grave" unicode="`" horiz-adv-x="513" 
d="M121 766q0 28 18.5 46t46.5 18q34 0 58 -33l75 -103q18 -25 18 -45q0 -57 -56 -57q-26 0 -55 32l-78 86q-27 30 -27 56z" />
    <glyph glyph-name="a" unicode="a" horiz-adv-x="618" 
d="M191 275q0 -53 25 -90q29 -42 80 -42t79 42q24 37 24 90t-24 89q-28 41 -79 41q-50 0 -79 -41q-26 -37 -26 -89zM405 49q-50 -61 -136 -61q-109 0 -180 90q-65 83 -65 195q0 113 68 197q72 90 183 90q81 0 130 -58q28 51 77 51q80 0 80 -117v-325q0 -118 -80 -118
q-53 0 -77 56z" />
    <glyph glyph-name="b" unicode="b" horiz-adv-x="618" 
d="M214 517h4q52 47 127 47q113 0 183 -91q65 -84 65 -200q0 -84 -40 -153q-41 -72 -114 -108q-45 -22 -94 -22q-84 0 -131 55q-31 -52 -77 -52q-82 0 -82 118v554q0 118 82 118q77 0 77 -118v-148zM214 271q0 -54 26 -90q29 -40 81 -40t82 43q25 37 25 92q0 56 -25 94
q-29 44 -82 44t-82 -41q-25 -36 -25 -91v-11z" />
    <glyph glyph-name="c" unicode="c" horiz-adv-x="497" 
d="M26 273q0 127 76 207.5t202 80.5q66 0 115 -20q66 -28 66 -84q0 -29 -19 -49t-48 -20q-19 0 -49.5 12.5t-64.5 12.5q-55 0 -85 -42q-27 -38 -27 -95q0 -60 28 -96q32 -40 90 -40q34 0 63 12t48 12q28 0 45.5 -20.5t17.5 -49.5q0 -49 -68 -83q-49 -24 -122 -24
q-122 0 -196 83q-72 80 -72 203z" />
    <glyph glyph-name="d" unicode="d" horiz-adv-x="618" 
d="M400 517h5v148q0 118 77 118q80 0 80 -118v-554q0 -118 -80 -118q-49 0 -77 52q-50 -55 -132 -55q-107 0 -181 92q-68 86 -68 196q0 113 67 196q71 90 182 90q73 0 127 -47zM405 268v29q0 117 -108 117q-52 0 -82 -45q-25 -38 -25 -93q0 -54 26 -92q30 -43 81 -43
q53 0 82 38q26 35 26 89z" />
    <glyph glyph-name="e" unicode="e" horiz-adv-x="580" 
d="M192 228q5 -47 39 -72t83 -25q41 0 99 26.5t72 26.5q64 0 64 -63q0 -24 -18 -48q-32 -44 -102 -67q-59 -20 -123 -20q-120 0 -200 82.5t-80 203.5q0 120 76.5 205t195.5 85q59 0 107 -22q69 -32 113 -95t44 -137q0 -40 -29 -61q-25 -19 -66 -19h-275zM190 334h213
q-3 42 -32.5 69t-71.5 27q-43 0 -72 -26.5t-37 -69.5z" />
    <glyph glyph-name="f" unicode="f" horiz-adv-x="360" 
d="M253 539q126 0 126 -72q0 -47 -46 -62q-24 -8 -84 -8v-286q0 -118 -80 -118q-81 0 -81 118v286q-97 0 -97 70q0 72 97 72v56q0 87 40 135q43 53 128 53q106 0 106 -81q0 -66 -73 -66q-24 0 -30 -12.5t-6 -84.5z" />
    <glyph glyph-name="g" unicode="g" horiz-adv-x="613" 
d="M405 263v29q0 114 -108 114q-51 0 -80 -43q-26 -37 -26 -90q0 -54 25 -92q29 -43 81 -43q53 0 82 37q26 34 26 88zM405 68h-4q-51 -76 -143 -76q-47 0 -90 21q-70 35 -109 109q-35 68 -35 151q0 113 68 197q72 90 183 90q81 0 130 -58q25 51 71 51q81 0 81 -117v-325
q0 -75 -7 -129q-14 -107 -92 -164q-72 -52 -185 -52q-112 0 -174.5 35.5t-62.5 82.5q0 31 19.5 51t50.5 20q18 0 71 -21.5t102 -21.5q62 0 94 37t32 99v20z" />
    <glyph glyph-name="h" unicode="h" horiz-adv-x="605" 
d="M218 505q46 48 138 48q197 0 197 -210v-232q0 -118 -81 -118t-81 118v183q0 60 -14 85q-19 36 -73 36q-86 0 -86 -119v-185q0 -118 -81 -118q-82 0 -82 118v554q0 118 82 118q81 0 81 -118v-160z" />
    <glyph glyph-name="i" unicode="i" horiz-adv-x="282" 
d="M222 111q0 -118 -80 -118q-81 0 -81 118v325q0 117 81 117q80 0 80 -117v-325zM48 690q0 39 27.5 66t66.5 27t65.5 -27t26.5 -66t-26.5 -66t-65.5 -27q-40 0 -67 26.5t-27 66.5z" />
    <glyph glyph-name="j" unicode="j" horiz-adv-x="282" 
d="M222 -108q0 -118 -80 -118q-81 0 -81 118v544q0 117 81 117q80 0 80 -117v-544zM48 690q0 39 27.5 66t66.5 27t65.5 -27t26.5 -66t-26.5 -66t-65.5 -27q-40 0 -67 26.5t-27 66.5z" />
    <glyph glyph-name="k" unicode="k" horiz-adv-x="528" 
d="M218 368l137 142q42 44 83 44q27 0 47.5 -17.5t20.5 -44.5q0 -40 -41 -78l-109 -101l151 -177q32 -38 32 -79q0 -29 -23.5 -46.5t-52.5 -17.5q-48 0 -84 48l-161 216v-146q0 -118 -81 -118q-82 0 -82 118v554q0 118 82 118q81 0 81 -118v-297z" />
    <glyph glyph-name="l" unicode="l" horiz-adv-x="282" 
d="M61 665q0 118 81 118q80 0 80 -118v-554q0 -118 -80 -118q-81 0 -81 118v554z" />
    <glyph glyph-name="m" unicode="m" horiz-adv-x="901" 
d="M55 111v325q0 117 79 117q51 0 80 -51q45 51 129 51q106 0 161 -74q67 74 163 74q183 0 183 -210v-232q0 -118 -81 -118q-79 0 -79 118v183q0 121 -75 121q-82 0 -82 -119v-185q0 -118 -80 -118t-80 118v183q0 121 -74 121q-83 0 -83 -119v-185q0 -118 -79 -118
q-82 0 -82 118z" />
    <glyph glyph-name="n" unicode="n" horiz-adv-x="605" 
d="M55 111v325q0 117 82 117q48 0 77 -51q46 51 142 51q197 0 197 -210v-232q0 -118 -81 -118t-81 118v183q0 60 -14 85q-19 36 -73 36q-86 0 -86 -119v-185q0 -118 -81 -118q-82 0 -82 118z" />
    <glyph glyph-name="o" unicode="o" horiz-adv-x="599" 
d="M26 273q0 123 76.5 206.5t197.5 83.5q123 0 198 -83t75 -207q0 -123 -74 -205q-77 -84 -199 -84q-121 0 -199 85q-75 82 -75 204zM193 275q0 -55 26 -93q29 -44 81 -44q53 0 82 44q25 37 25 93q0 54 -26 92q-29 44 -81 44q-53 0 -82 -43q-25 -38 -25 -93z" />
    <glyph glyph-name="p" unicode="p" horiz-adv-x="618" 
d="M218 30h-4v-140q0 -116 -77 -116q-82 0 -82 118v544q0 117 82 117q48 0 77 -51q49 55 133 55q112 0 182 -88q64 -82 64 -196q0 -85 -39 -156q-40 -75 -113 -111q-46 -23 -96 -23q-73 0 -127 47zM214 263q0 -55 25 -90q29 -40 82 -40t82 44q25 39 25 94q0 54 -26 92
q-29 44 -81 44q-44 0 -75.5 -29.5t-31.5 -114.5z" />
    <glyph glyph-name="q" unicode="q" horiz-adv-x="618" 
d="M405 30h-5q-54 -47 -128 -47q-109 0 -181 93q-67 85 -67 197q0 113 66 196q70 88 181 88q84 0 134 -55q29 51 77 51q80 0 80 -117v-544q0 -118 -80 -118q-77 0 -77 118v138zM405 259v31q0 117 -108 117q-52 0 -81 -44q-26 -38 -26 -92q0 -55 25 -94q29 -44 82 -44
q54 0 82 37q26 34 26 89z" />
    <glyph glyph-name="r" unicode="r" horiz-adv-x="390" 
d="M55 111v325q0 117 82 117q48 0 77 -51q50 54 109 54q35 0 59 -22.5t24 -57.5q0 -38 -41 -61q-5 -2 -81 -31q-48 -19 -58 -43q-8 -19 -8 -62v-168q0 -118 -81 -118q-82 0 -82 118z" />
    <glyph glyph-name="s" unicode="s" horiz-adv-x="447" 
d="M210 -15q-135 0 -185 74q-15 22 -15 46q0 73 76 73q22 0 61.5 -24t74.5 -24q45 0 45 33q0 21 -63 49q-87 39 -116 61q-63 47 -63 115q0 80 62 129q58 46 140 46q51 0 97 -16q55 -19 79 -55q14 -21 14 -42q0 -29 -19 -48.5t-48 -19.5q-21 0 -63.5 19.5t-66.5 19.5
q-37 0 -37 -28q0 -22 31 -34q68 -26 97 -40q56 -28 85 -59q33 -36 33 -91q0 -84 -69 -136q-64 -48 -150 -48z" />
    <glyph glyph-name="t" unicode="t" horiz-adv-x="342" 
d="M88 397q-97 0 -97 70q0 67 97 72q0 98 4 118q15 71 77 71q61 0 76 -71q4 -20 4 -118q117 0 117 -72q0 -70 -117 -70v-286q0 -118 -80 -118q-81 0 -81 118v286z" />
    <glyph glyph-name="u" unicode="u" horiz-adv-x="594" 
d="M52 221v215q0 117 81 117t81 -117v-182q0 -54 14 -81q19 -37 69 -37t69 37q14 27 14 81v182q0 117 81 117q80 0 80 -117v-215q0 -116 -63.5 -176.5t-180.5 -60.5t-181 60.5t-64 176.5z" />
    <glyph glyph-name="v" unicode="v" horiz-adv-x="475" 
d="M-4 473q0 33 22.5 56.5t55.5 23.5q58 0 83 -79l88 -281l88 292q20 68 77 68q36 0 55.5 -22.5t19.5 -58.5q0 -19 -13 -53l-136 -353q-16 -41 -32 -57q-22 -22 -61 -22q-40 0 -63 24q-17 16 -34 60l-141 358q-9 23 -9 44z" />
    <glyph glyph-name="w" unicode="w" horiz-adv-x="777" 
d="M392 329h-6l-63 -263q-19 -79 -92 -79q-68 0 -98 84l-128 358q-9 25 -9 44q0 33 22.5 56.5t55.5 23.5q60 0 83 -79l85 -295l69 296q18 78 78 78q59 0 79 -80l74 -290l85 302q19 68 77 68q36 0 55.5 -22.5t19.5 -58.5q0 -19 -12 -53l-124 -353q-28 -79 -93 -79
q-77 0 -97 84z" />
    <glyph glyph-name="x" unicode="x" horiz-adv-x="506" 
d="M258 172l-115 -137q-35 -42 -70 -42q-32 0 -55 24t-23 56q0 33 34 71l134 148l-113 115q-30 31 -30 65q0 32 22 57t53 25q37 0 67 -34l99 -114l90 110q31 38 66 38q34 0 58.5 -23t24.5 -57q0 -31 -36 -69l-107 -114l127 -143q22 -25 28 -36q10 -18 10 -44
q0 -31 -21.5 -53t-52.5 -22q-38 0 -74 42z" />
    <glyph glyph-name="y" unicode="y" horiz-adv-x="494" 
d="M423 553q80 0 80 -77q0 -25 -13 -56l-247 -585q-28 -66 -71 -66q-36 0 -58 21t-22 57q0 24 14 55l66 145l-163 381q-9 21 -9 45q0 34 22.5 57t56.5 23q35 0 55 -23q12 -14 27 -55l92 -244l99 258q25 64 71 64z" />
    <glyph glyph-name="z" unicode="z" horiz-adv-x="459" 
d="M476 74q0 -74 -102 -74h-295q-85 0 -85 50q0 31 24 62l222 287h-139q-102 0 -102 74q0 73 103 73h259q52 0 77 -8.5t25 -40.5q0 -29 -33 -71l-215 -276h160q101 0 101 -76z" />
    <glyph glyph-name="braceleft" unicode="{" horiz-adv-x="513" 
d="M246 268v-4q53 -16 72 -56q14 -30 14 -91v-121q0 -62 13 -81q10 -15 37 -18q33 -5 40 -9q19 -10 19 -44q0 -52 -51 -52q-55 0 -89 7q-58 12 -78 60q-13 33 -13 103v126q0 69 -20 98t-53 29q-59 0 -59 50q0 52 59 52q33 0 53 30t20 98v125q0 69 14 102q20 48 77 61
q32 7 89 7q51 0 51 -52q0 -34 -19 -44q-8 -5 -40 -8q-27 -3 -37 -17q-13 -18 -13 -83v-120q0 -61 -15 -92q-19 -40 -71 -56z" />
    <glyph glyph-name="bar" unicode="|" horiz-adv-x="513" 
d="M205 784h104v-980h-104v980z" />
    <glyph glyph-name="braceright" unicode="}" horiz-adv-x="513" 
d="M267 268q-53 16 -72 57q-13 29 -13 91v120q0 66 -13 83q-10 14 -37 17q-33 3 -41 8q-19 10 -19 44q0 52 51 52q57 0 89 -7q57 -13 77 -61q14 -33 14 -102v-125q0 -68 21 -98t53 -30q58 0 58 -52q0 -50 -58 -50q-33 0 -53.5 -29.5t-20.5 -97.5v-126q0 -104 -36 -137
t-144 -33q-51 0 -51 52q0 34 19 44q7 4 40 9q27 3 39 19.5t12 79.5v121q0 63 14 92q18 39 71 55v4z" />
    <glyph glyph-name="asciitilde" unicode="~" horiz-adv-x="855" 
d="M305 418q90 0 159 -50q11 -12 36 -33q21 -16 51 -16q44 0 75 35t63 35q66 0 66 -59q0 -25 -15 -49q-53 -84 -189 -84q-107 0 -166 58q-10 10 -31 29q-14 12 -49 12q-42 0 -75 -35t-65 -35q-63 0 -63 59q0 23 15 48q26 43 82 66q49 19 106 19z" />
    <glyph glyph-name="currency" unicode="&#xa4;" horiz-adv-x="622" 
d="M86 721l103 -102q51 39 122 39t124 -39l102 102l52 -54l-101 -102q38 -55 38 -121t-38 -122l101 -102l-52 -53l-102 102q-51 -39 -123 -39q-71 0 -123 39l-103 -102l-52 53l102 102q-38 53 -38 122q0 68 38 121l-102 102zM312 582q-56 0 -97 -41t-41 -97
q0 -57 40.5 -97.5t97.5 -40.5t98 40.5t41 97.5t-41 97.5t-98 40.5z" />
    <glyph glyph-name="brokenbar" unicode="&#xa6;" horiz-adv-x="513" 
d="M205 718h104v-380h-104v380zM205 204h104v-380h-104v380z" />
    <glyph glyph-name="section" unicode="&#xa7;" horiz-adv-x="537" 
d="M104 453q-51 50 -51 115q0 87 63 137q58 46 147 46q154 0 208 -98q15 -27 15 -58q0 -30 -18 -49.5t-48 -19.5q-29 0 -47.5 26t-36.5 52q-26 27 -69 27q-69 0 -69 -51q0 -29 36 -49q31 -17 105 -53.5t104 -56.5q58 -39 79 -85q13 -28 13 -68q0 -102 -92 -156
q50 -51 50 -118q0 -88 -67 -137q-60 -43 -151 -43q-51 0 -92 13q-54 17 -90 51q-42 40 -42 91q0 29 18.5 49.5t47.5 20.5q30 0 49 -26t37 -52q26 -27 72 -27q72 0 72 52q0 30 -35 49l-160 80q-100 55 -128 115q-14 30 -14 68q0 48 25.5 90t68.5 65zM350 180q45 23 45 69
q0 34 -51 63q-40 23 -149 74q-44 -26 -44 -70q0 -32 50 -61t149 -75z" />
    <glyph glyph-name="copyright" unicode="&#xa9;" horiz-adv-x="855" 
d="M427 741q156 0 265 -108.5t109 -264.5q0 -155 -108 -261q-114 -112 -266 -112q-151 0 -261.5 111t-110.5 262q0 153 109 263t263 110zM428 680q-130 0 -220.5 -90.5t-90.5 -220.5q0 -129 91 -220.5t220 -91.5q127 0 222 93q89 87 89 219q0 130 -90.5 220.5t-220.5 90.5z
M231 368q0 95 61 155t156 60q49 0 86 -15q49 -21 49 -63q0 -51 -49 -51q-13 0 -40 9t-46 9q-42 0 -67 -30t-25 -72q0 -44 26.5 -73.5t70.5 -29.5q20 0 45.5 9t37.5 9q21 0 34 -15t13 -37q0 -44 -63 -68q-33 -13 -80 -13q-92 0 -150.5 62t-58.5 154z" />
    <glyph glyph-name="guillemotleft" unicode="&#xab;" horiz-adv-x="518" 
d="M131 270l89 -65q20 -15 26 -24q8 -12 8 -34q0 -60 -42 -60q-19 0 -43 15q-90 56 -120 94q-25 32 -25 74q0 47 24 74q44 50 122 96q23 14 43 14q41 0 41 -60q0 -33 -34 -58zM370 270l88 -65q33 -24 33 -58q0 -60 -42 -60q-18 0 -42 15q-92 58 -120 94q-25 32 -25 74
q0 48 24 74q46 51 122 96q24 14 43 14q40 0 40 -60q0 -23 -6 -33t-27 -25z" />
    <glyph glyph-name="logicalnot" unicode="&#xac;" horiz-adv-x="855" 
d="M174 439h557v-210q0 -53 -52 -53q-51 0 -51 53v106h-454q-61 0 -61 52t61 52z" />
    <glyph glyph-name="registered" unicode="&#xae;" horiz-adv-x="855" 
d="M427 741q156 0 265 -108.5t109 -264.5q0 -78 -28 -145q-42 -102 -138.5 -165t-207.5 -63q-152 0 -262 110.5t-110 262.5q0 100 55 194q50 86 133.5 132.5t183.5 46.5zM428 680q-128 0 -216 -89q-95 -96 -95 -222q0 -127 91.5 -220t218.5 -93q126 0 219 90t93 216
q0 134 -89 226t-222 92zM435 582q177 0 177 -119q0 -86 -90 -110l70 -107q20 -31 20 -64q0 -12 -17.5 -21t-31.5 -9q-29 0 -54 42l-86 144h-49v-122q0 -64 -52 -64q-49 0 -49 64v307q0 59 49 59h113zM374 518v-120h49q85 0 85 59q0 61 -90 61h-44z" />
    <glyph glyph-name="degree" unicode="&#xb0;" horiz-adv-x="338" 
d="M169 734q63 0 107.5 -45t44.5 -108t-45 -107.5t-108 -44.5q-62 0 -106.5 44.5t-44.5 107.5t44.5 108t107.5 45zM169 669q-37 0 -62.5 -25t-25.5 -62q0 -36 26 -62t62 -26t62 26t26 62q0 38 -25 62.5t-63 24.5z" />
    <glyph glyph-name="plusminus" unicode="&#xb1;" horiz-adv-x="855" 
d="M376 351h-178q-72 0 -72 48q0 52 72 52h178v110q0 53 50 53q52 0 52 -53v-110h178q72 0 72 -52q0 -48 -72 -48h-178v-110q0 -53 -52 -53q-50 0 -50 53v110zM198 100h458q72 0 72 -52q0 -48 -72 -48h-458q-72 0 -72 48q0 52 72 52z" />
    <glyph glyph-name="mu" unicode="&#xb5;" horiz-adv-x="649" 
d="M555 103q50 0 62 -3q32 -8 32 -44q0 -40 -51 -59q-37 -13 -85 -13q-80 0 -102 54h-3q-39 -54 -88 -54q-60 0 -111 60v-185q0 -79 -68 -79q-76 0 -76 79v612q0 76 76 76q68 0 68 -76v-141q0 -131 29 -181q27 -46 93 -46q80 0 80 187v181q0 76 74 76q70 0 70 -76v-368z" />
    <glyph glyph-name="mu" unicode="&#x3bc;" horiz-adv-x="649" 
d="M555 103q50 0 62 -3q32 -8 32 -44q0 -40 -51 -59q-37 -13 -85 -13q-80 0 -102 54h-3q-39 -54 -88 -54q-60 0 -111 60v-185q0 -79 -68 -79q-76 0 -76 79v612q0 76 76 76q68 0 68 -76v-141q0 -131 29 -181q27 -46 93 -46q80 0 80 187v181q0 76 74 76q70 0 70 -76v-368z" />
    <glyph glyph-name="paragraph" unicode="&#xb6;" horiz-adv-x="546" 
d="M217 741h276q53 0 53 -33q0 -31 -53 -31h-57v-618q0 -59 -41 -59q-35 0 -35 59v618h-80v-618q0 -59 -38 -59t-38 59v334q-80 3 -130 48q-53 48 -53 126q0 83 58 130q53 44 138 44z" />
    <glyph glyph-name="periodcentered" unicode="&#xb7;" horiz-adv-x="333" 
d="M73 364q0 39 27 66.5t66 27.5q40 0 67 -27t27 -67q0 -39 -27.5 -65.5t-66.5 -26.5t-66 26.5t-27 65.5z" />
    <glyph glyph-name="periodcentered" unicode="&#x2219;" horiz-adv-x="333" 
d="M73 364q0 39 27 66.5t66 27.5q40 0 67 -27t27 -67q0 -39 -27.5 -65.5t-66.5 -26.5t-66 26.5t-27 65.5z" />
    <glyph glyph-name="guillemotright" unicode="&#xbb;" horiz-adv-x="518" 
d="M148 271l-88 65q-20 15 -27 25.5t-7 32.5q0 60 42 60q20 0 42 -14q91 -59 121 -95q25 -30 25 -74q0 -47 -24 -74q-26 -30 -77 -67q-61 -43 -88 -43q-41 0 -41 60q0 33 34 58zM385 271l-87 65q-21 15 -26 24q-8 12 -8 34q0 60 42 60q20 0 42 -14q91 -59 121 -95
q25 -30 25 -74q0 -47 -25 -74q-29 -32 -78 -67q-59 -43 -87 -43q-40 0 -40 60q0 32 34 58z" />
    <glyph glyph-name="afii10023" unicode="&#x401;" horiz-adv-x="518" 
d="M367 730q118 0 118 -78q0 -77 -118 -77h-136v-130h117q118 0 118 -77t-118 -77h-117v-137h141q118 0 118 -77t-118 -77h-194q-63 0 -88 21.5t-25 83.5v508q0 65 25 91t90 26h187zM420 876q0 -82 -72 -82q-35 0 -53.5 23.5t-18.5 58.5q0 36 18.5 59.5t53.5 23.5
q72 0 72 -83zM243 876q0 -82 -72 -82q-71 0 -71 82q0 83 71 83q72 0 72 -83z" />
    <glyph glyph-name="afii10017" unicode="&#x410;" horiz-adv-x="642" 
d="M325 740q89 0 123 -96l184 -525q12 -34 12 -52q0 -34 -24 -55t-58 -21q-63 0 -88 79l-27 86h-258l-30 -92q-24 -73 -80 -73q-35 0 -57 21.5t-22 56.5q0 26 8 48l190 515q40 108 127 108zM320 559l-83 -256h165l-80 256h-2z" />
    <glyph glyph-name="afii10018" unicode="&#x411;" horiz-adv-x="622" 
d="M231 345v-192h72q114 0 114 95q0 97 -114 97h-72zM231 496h112q119 0 186.5 -64.5t67.5 -183.5q0 -118 -75 -185q-72 -63 -192 -63h-150q-65 0 -90 26t-25 91v496q0 65 25 91t90 26h260q119 0 119 -78q0 -77 -119 -77h-209v-79z" />
    <glyph glyph-name="afii10019" unicode="&#x412;" horiz-adv-x="632" 
d="M178 0q-63 0 -88 21.5t-25 83.5v508q0 65 25 91t90 26h136q99 0 168 -41q84 -49 84 -141q0 -119 -86 -161v-3q64 -20 92 -58.5t28 -105.5q0 -111 -77 -169q-68 -51 -183 -51h-164zM231 315v-172h83q53 0 79 14q34 19 34 68q0 57 -33 76q-24 14 -83 14h-80zM231 588v-143
h72q49 0 69 12q28 16 28 60q0 71 -97 71h-72z" />
    <glyph glyph-name="afii10020" unicode="&#x413;" horiz-adv-x="497" 
d="M65 109v504q0 65 25 91t90 26h187q118 0 118 -78q0 -77 -118 -77h-136v-466q0 -118 -83 -118t-83 118z" />
    <glyph glyph-name="afii10021" unicode="&#x414;" horiz-adv-x="747" 
d="M581 0h-424v-65q0 -34 -20 -54t-55 -20q-34 0 -53.5 20t-19.5 54v133q0 71 65 71q19 0 29.5 31t10.5 107v268q0 85 48 135t133 50h255q53 0 75 -34q17 -27 17 -84v-473q87 0 87 -71v-133q0 -74 -74 -74q-34 0 -54 20t-20 54v65zM240 139h235v444h-176q-37 0 -37 -40v-266
q0 -76 -22 -138z" />
    <glyph glyph-name="afii10022" unicode="&#x415;" horiz-adv-x="518" 
d="M367 730q118 0 118 -78q0 -77 -118 -77h-136v-130h117q118 0 118 -77t-118 -77h-117v-137h141q118 0 118 -77t-118 -77h-194q-63 0 -88 21.5t-25 83.5v508q0 65 25 91t90 26h187z" />
    <glyph glyph-name="afii10024" unicode="&#x416;" horiz-adv-x="947" 
d="M396 298l-14 11l-216 -260q-48 -58 -89 -58q-30 0 -53.5 23.5t-23.5 53.5q0 33 42 82l219 256l-164 162q-40 39 -42 42q-24 28 -24 51q0 31 25.5 54.5t56.5 23.5q33 0 91 -59l192 -197v138q0 118 77 118q47 0 65 -38q12 -26 12 -80v-138l192 197q58 59 92 59q32 0 57 -23
t25 -55q0 -23 -24 -51q-2 -3 -42 -42l-164 -162l219 -256q42 -49 42 -82q0 -30 -23.5 -53.5t-53.5 -23.5q-42 0 -90 58l-215 260l-15 -11v-189q0 -118 -77 -118t-77 118v189z" />
    <glyph glyph-name="afii10025" unicode="&#x417;" horiz-adv-x="580" 
d="M432 390v-3q117 -47 117 -167q0 -229 -287 -229q-91 0 -154 21q-93 31 -93 103q0 63 69 63q29 0 58 -12q43 -18 54 -21q23 -6 69 -6q111 0 111 86q0 37 -26 63q-20 21 -58 25q-9 1 -64 1q-104 0 -104 69q0 31 29 51q22 15 58 18q7 1 62 1q38 0 63 15q31 19 31 54
q0 79 -100 79q-31 0 -80.5 -14t-74.5 -14q-69 0 -69 63q0 21 19 41q59 62 209 62q260 0 260 -201q0 -105 -99 -148z" />
    <glyph glyph-name="afii10026" unicode="&#x418;" horiz-adv-x="768" 
d="M537 445l-301 -398q-42 -56 -96 -56q-75 0 -75 99v531q0 118 83 118t83 -118v-342l307 406q41 54 88 54q77 0 77 -112v-518q0 -118 -83 -118t-83 118v336z" />
    <glyph glyph-name="afii10027" unicode="&#x419;" horiz-adv-x="768" 
d="M537 445l-301 -398q-42 -56 -96 -56q-75 0 -75 99v531q0 118 83 118t83 -118v-342l307 406q41 54 88 54q77 0 77 -112v-518q0 -118 -83 -118t-83 118v336zM384 775q-75 0 -122 37t-47 82q0 57 53 57q30 0 52 -33.5t64 -33.5t64 33.5t51 33.5q54 0 54 -57t-59 -91
q-49 -28 -110 -28z" />
    <glyph glyph-name="afii10028" unicode="&#x41a;" horiz-adv-x="638" 
d="M65 109v512q0 118 83 118t83 -118v-159l212 218q57 59 91 59q32 0 57 -23t25 -55q0 -23 -24 -51l-42 -42l-168 -167l223 -251q42 -47 42 -82q0 -30 -23.5 -53.5t-53.5 -23.5q-40 0 -90 58l-220 256l-29 -24v-172q0 -118 -83 -118t-83 118z" />
    <glyph glyph-name="afii10029" unicode="&#x41b;" horiz-adv-x="762" 
d="M531 592h-178q-37 0 -37 -45v-408q0 -148 -147 -148q-132 0 -132 77q0 46 25 61q15 9 53 10q34 1 44 11t10 44v353q0 107 39 149.5t145 42.5h261q83 0 83 -118v-512q0 -118 -83 -118q-52 0 -70 35q-13 25 -13 83v483z" />
    <glyph glyph-name="afii10030" unicode="&#x41c;" horiz-adv-x="897" 
d="M447 231h4l96 410q10 43 42.5 70.5t76.5 27.5q50 0 86 -32t44 -82l80 -498q6 -37 6 -56q0 -80 -75 -80q-44 0 -64 34q-14 22 -22 73l-63 399h-2l-94 -369q-15 -57 -34 -82q-28 -35 -79 -35t-79 35q-19 24 -34 82l-95 369h-2l-62 -399q-8 -52 -22 -74q-21 -33 -65 -33
q-75 0 -75 80q0 12 7 56l80 498q8 50 43.5 82t85.5 32q45 0 76.5 -27t42.5 -71z" />
    <glyph glyph-name="afii10031" unicode="&#x41d;" horiz-adv-x="768" 
d="M231 295v-186q0 -118 -83 -118t-83 118v512q0 118 83 118t83 -118v-172h306v172q0 118 83 118t83 -118v-512q0 -118 -83 -118t-83 118v186h-306z" />
    <glyph glyph-name="afii10032" unicode="&#x41e;" horiz-adv-x="759" 
d="M30 364q0 164 92 267q95 108 257 108q163 0 258 -107q92 -103 92 -268q0 -164 -92 -267q-96 -106 -258 -106t-257 107q-92 102 -92 266zM206 362q0 -90 41 -149q46 -69 132 -69t133 68q41 60 41 150q0 93 -39 153q-47 71 -135 71t-134 -71q-39 -60 -39 -153z" />
    <glyph glyph-name="afii10033" unicode="&#x41f;" horiz-adv-x="768" 
d="M231 583v-474q0 -118 -83 -118t-83 118v503q0 118 114 118h410q114 0 114 -118v-503q0 -118 -83 -118t-83 118v474h-306z" />
    <glyph glyph-name="afii10034" unicode="&#x420;" horiz-adv-x="622" 
d="M231 385h72q114 0 114 97q0 95 -114 95h-72v-192zM148 -9q-83 0 -83 118v504q0 65 25 91t90 26h150q121 0 192 -63q75 -66 75 -185q0 -118 -68 -183t-186 -65h-112v-125q0 -118 -83 -118z" />
    <glyph glyph-name="afii10035" unicode="&#x421;" horiz-adv-x="636" 
d="M385 -18q-165 0 -263 110q-94 105 -94 272q0 163 97 272q100 113 262 113q58 0 110 -16q65 -20 93 -57q16 -21 16 -43q0 -29 -21 -51.5t-50 -22.5q-27 0 -65 15t-82 15q-90 0 -138 -72q-42 -62 -42 -157q0 -93 45 -152q49 -66 140 -66q40 0 89 18t66 18q28 0 47.5 -22.5
t19.5 -50.5q0 -24 -16 -46q-56 -77 -214 -77z" />
    <glyph glyph-name="afii10036" unicode="&#x422;" horiz-adv-x="501" 
d="M167 575q-90 0 -112 5q-67 14 -67 72q0 78 118 78h289q118 0 118 -78q0 -58 -67 -72q-22 -5 -112 -5v-466q0 -118 -83 -118q-84 0 -84 118v466z" />
    <glyph glyph-name="afii10037" unicode="&#x423;" horiz-adv-x="586" 
d="M236 -144q-74 0 -74 79q0 26 9 48l47 117l-206 510q-9 22 -9 47q0 37 21 60t58 23q47 0 76 -72l143 -354h4l131 348q15 39 28 54q20 24 54 24q77 0 77 -77q0 -29 -11 -57l-266 -682q-14 -35 -29 -50q-19 -18 -53 -18z" />
    <glyph glyph-name="afii10038" unicode="&#x424;" horiz-adv-x="859" 
d="M429 -9q-55 0 -71 42q-10 24 -10 89q-113 0 -162 18q-76 28 -118.5 90t-42.5 143t41.5 142.5t117.5 89.5q48 18 164 18q0 57 12 81q18 35 69 35q52 0 70 -35q12 -24 12 -81q115 0 164 -18q76 -28 117.5 -89.5t41.5 -142.5t-42.5 -143t-118.5 -90q-49 -18 -162 -18
q0 -65 -10 -89q-17 -42 -72 -42zM508 489v-231h46q111 0 111 115q0 116 -111 116h-46zM351 258v231h-46q-111 0 -111 -116q0 -115 111 -115h46z" />
    <glyph glyph-name="afii10039" unicode="&#x425;" horiz-adv-x="594" 
d="M61 -9q-28 0 -51.5 22t-23.5 50q0 34 37 84l177 240l-133 194q-37 54 -37 82q0 34 23 55t57 21q44 0 86 -64l101 -153l106 155q42 62 89 62q29 0 51 -21.5t22 -50.5q0 -31 -38 -86l-134 -194l178 -241q38 -51 38 -84q0 -29 -23 -50t-53 -21q-47 0 -90 61l-148 208
l-147 -207q-44 -62 -87 -62z" />
    <glyph glyph-name="afii10040" unicode="&#x426;" horiz-adv-x="790" 
d="M238 139h290v482q0 118 83 118t83 -118v-482q86 0 86 -71v-133q0 -74 -74 -74q-34 0 -54 20t-20 54v65h-446q-114 0 -114 118v503q0 118 83 118t83 -118v-482z" />
    <glyph glyph-name="afii10041" unicode="&#x427;" horiz-adv-x="617" 
d="M302 394h84v228q0 117 83 117t83 -117v-513q0 -118 -83 -118t-83 118v137h-112q-117 0 -178.5 63.5t-61.5 181.5v131q0 117 83 117t83 -117v-131q0 -58 21.5 -77.5t80.5 -19.5z" />
    <glyph glyph-name="afii10042" unicode="&#x428;" horiz-adv-x="998" 
d="M767 139v482q0 118 83 118t83 -118v-503q0 -118 -114 -118h-640q-114 0 -114 118v503q0 118 83 118t83 -118v-482h194v482q0 54 11 79q17 39 63 39t63 -39q11 -25 11 -79v-482h194z" />
    <glyph glyph-name="afii10043" unicode="&#x429;" horiz-adv-x="1029" 
d="M767 139v482q0 118 83 118t83 -118v-482h13q74 0 74 -71v-133q0 -34 -20 -54t-54 -20t-54 20t-20 54v65h-693q-114 0 -114 118v503q0 118 83 118t83 -118v-482h194v482q0 54 11 79q17 39 63 39t63 -39q11 -25 11 -79v-482h194z" />
    <glyph glyph-name="afii10044" unicode="&#x42a;" horiz-adv-x="735" 
d="M344 345v-192h72q114 0 114 95q0 97 -114 97h-72zM178 582h-95q-74 0 -74 74t74 74h191q45 0 57.5 -23.5t12.5 -85.5v-125h112q119 0 186 -65t67 -183t-73.5 -183t-192.5 -65h-150q-65 0 -90 26t-25 91v465z" />
    <glyph glyph-name="afii10045" unicode="&#x42b;" horiz-adv-x="895" 
d="M231 345v-192h53q114 0 114 95q0 97 -114 97h-53zM231 496h87q119 0 186.5 -64.5t67.5 -183.5q0 -118 -75 -185q-72 -63 -192 -63h-125q-65 0 -90 26t-25 91v504q0 118 83 118t83 -118v-125zM831 109q0 -118 -84 -118q-83 0 -83 118v512q0 118 83 118q84 0 84 -118v-512z
" />
    <glyph glyph-name="afii10046" unicode="&#x42c;" horiz-adv-x="622" 
d="M231 345v-192h72q114 0 114 95q0 97 -114 97h-72zM231 496h112q119 0 186.5 -64.5t67.5 -183.5q0 -118 -75 -185q-72 -63 -192 -63h-150q-65 0 -90 26t-25 91v504q0 118 83 118t83 -118v-125z" />
    <glyph glyph-name="afii10047" unicode="&#x42d;" horiz-adv-x="619" 
d="M144 378q0 66 79 66h191q-8 65 -56.5 102t-115.5 37q-43 0 -80 -14.5t-63 -14.5q-29 0 -49 21.5t-20 50.5q0 21 16 42q54 71 197 71q160 0 257 -109q94 -105 94 -266q0 -164 -91 -266q-96 -107 -258 -107q-50 0 -91 10q-50 12 -86 36q-47 32 -47 74q0 28 19 50t46 22
q17 0 65 -18t86 -18q73 0 121 44t56 117h-192q-78 0 -78 70z" />
    <glyph glyph-name="afii10048" unicode="&#x42e;" horiz-adv-x="971" 
d="M231 446h109q17 133 90 210q79 83 209 83q155 0 235 -115q70 -99 70 -260q0 -269 -181 -348q-57 -25 -124 -25q-137 0 -217 92q-73 83 -85 224h-106v-198q0 -118 -83 -118t-83 118v512q0 118 83 118t83 -118v-175zM640 598q-54 0 -88 -50q-28 -39 -38 -99q-6 -37 -6 -83
q0 -86 25 -148q34 -86 107 -86t107 86q24 61 24 148q0 114 -36.5 173t-94.5 59z" />
    <glyph glyph-name="afii10049" unicode="&#x42f;" horiz-adv-x="613" 
d="M424 399v178h-79q-104 0 -104 -87q0 -91 106 -91h77zM590 613v-504q0 -118 -83 -118t-83 118v180l-194 -244q-43 -54 -88 -54q-33 0 -56.5 20.5t-23.5 52.5q0 40 49 95l131 146q-80 13 -127 65t-47 132q0 101 71.5 164.5t206.5 63.5h129q66 0 90.5 -25.5t24.5 -91.5z" />
    <glyph glyph-name="afii10065" unicode="&#x430;" horiz-adv-x="618" 
d="M191 275q0 -53 25 -90q29 -42 80 -42t79 42q24 37 24 90t-24 89q-28 41 -79 41q-50 0 -79 -41q-26 -37 -26 -89zM405 49q-50 -61 -136 -61q-109 0 -180 90q-65 83 -65 195q0 113 68 197q72 90 183 90q81 0 130 -58q28 51 77 51q80 0 80 -117v-325q0 -118 -80 -118
q-53 0 -77 56z" />
    <glyph glyph-name="afii10066" unicode="&#x431;" horiz-adv-x="582" 
d="M36 274v80q0 311 147 354q44 13 175 13q54 0 64.5 7.5t10.5 18.5q0 15 23 25q19 8 37 8q53 0 53 -83q0 -34 -31 -59q-25 -20 -63 -27q-25 -5 -56 -5h-106q-53 0 -81 -41q-19 -29 -19 -75h3q50 39 128 39q117 0 179 -76q56 -70 56 -190q0 -128 -68 -203t-195 -75t-194 83
q-63 77 -63 206zM190 265q0 -139 103 -139q44 0 73.5 30.5t29.5 108.5q0 131 -103 131q-52 0 -79 -41q-24 -36 -24 -90z" />
    <glyph glyph-name="afii10067" unicode="&#x432;" horiz-adv-x="570" 
d="M216 449v-123h65q39 0 57 10q24 14 24 51q0 62 -87 62h-59zM147 -6q-92 0 -92 105v350q0 104 92 104h145q109 0 161 -29q70 -38 70 -137q0 -70 -67 -106q83 -44 83 -121q0 -100 -75 -138q-54 -28 -165 -28h-152zM216 222v-123h65q92 0 92 61q0 39 -29 53q-19 9 -63 9h-65
z" />
    <glyph glyph-name="afii10068" unicode="&#x433;" horiz-adv-x="392" 
d="M55 111v325q0 117 81 117h167q102 0 102 -69t-102 -69h-87v-304q0 -118 -80 -118q-81 0 -81 118z" />
    <glyph glyph-name="afii10069" unicode="&#x434;" horiz-adv-x="623" 
d="M214 120h173v304h-120q-37 0 -37 -37v-202q0 -31 -16 -65zM488 0h-368q0 -70 -2 -81q-9 -48 -52 -48q-75 0 -75 79v103q0 51 24 62q21 5 43 9q24 11 24 61v204q0 90 48 129q44 35 136 35h201q49 0 67 -34q13 -24 13 -76v-323q70 0 70 -69v-101q0 -79 -75 -79
q-42 0 -51 49q-3 13 -3 80z" />
    <glyph glyph-name="afii10070" unicode="&#x435;" horiz-adv-x="580" 
d="M192 228q5 -47 39 -72t83 -25q41 0 99 26.5t72 26.5q64 0 64 -63q0 -24 -18 -48q-32 -44 -102 -67q-59 -20 -123 -20q-120 0 -200 82.5t-80 203.5q0 120 76.5 205t195.5 85q59 0 107 -22q69 -32 113 -95t44 -137q0 -40 -29 -61q-25 -19 -66 -19h-275zM190 334h213
q-3 42 -32.5 69t-71.5 27q-43 0 -72 -26.5t-37 -69.5z" />
    <glyph glyph-name="afii10072" unicode="&#x436;" horiz-adv-x="766" 
d="M305 207l-23 18l-131 -184q-34 -48 -81 -48q-29 0 -51 18t-22 46q0 41 31 79l144 177l-104 101q-39 38 -39 78q0 27 18.5 44t45.5 17q41 0 81 -43l131 -142q0 94 4 115q14 70 74 70t74 -70q4 -21 4 -115l131 142q40 43 80 43q27 0 46 -17t19 -44q0 -40 -39 -78l-105 -101
l145 -177q31 -38 31 -79q0 -28 -22 -46t-51 -18q-47 0 -81 48l-131 184l-23 -18v-96q0 -118 -78 -118t-78 118v96z" />
    <glyph glyph-name="afii10073" unicode="&#x437;" horiz-adv-x="524" 
d="M139 273q0 53 77 53q54 0 70 6q31 11 31 55t-26 60q-19 11 -64 11q-35 0 -71 -13q-39 -14 -59 -14q-59 0 -59 55q0 77 201 77q112 0 167 -32q72 -41 72 -144q0 -70 -67 -106q80 -43 80 -121q0 -176 -252 -176q-215 0 -215 83q0 51 56 51q17 0 62 -15t97 -15q86 0 86 72
q0 33 -16 47t-63 15q-58 1 -72 5q-35 9 -35 46z" />
    <glyph glyph-name="afii10074" unicode="&#x438;" horiz-adv-x="605" 
d="M216 256l194 180q0 56 12 81q18 36 68 36t68 -36q12 -25 12 -81v-325q0 -56 -12 -81q-18 -37 -68 -37t-68 37q-12 25 -12 81v158l-194 -158q0 -55 -12 -81q-18 -37 -67 -37q-82 0 -82 118v325q0 54 13 80q19 37 69 37q49 0 67 -36q12 -25 12 -81v-180z" />
    <glyph glyph-name="afii10075" unicode="&#x439;" horiz-adv-x="605" 
d="M55 111v325q0 54 13 80q19 37 69 37q49 0 67 -36q12 -25 12 -81v-180l194 247q39 50 80 50q50 0 68 -36q12 -25 12 -81v-325q0 -56 -12 -81q-18 -37 -68 -37t-68 37q-12 25 -12 81v165l-194 -234q-41 -49 -79 -49q-82 0 -82 118zM313 600q-68 0 -112 35q-41 32 -41 71
q0 51 48 51q27 0 47.5 -30t57.5 -30q39 0 58 30t45 30q49 0 49 -51t-53 -81q-44 -25 -99 -25z" />
    <glyph glyph-name="afii10076" unicode="&#x43a;" horiz-adv-x="532" 
d="M240 225l-24 -18v-96q0 -118 -80 -118q-81 0 -81 118v324q0 118 81 118q61 0 75 -69q5 -21 5 -116l138 142q43 44 83 44q28 0 48 -17t20 -45q0 -40 -41 -78l-109 -101l151 -177q32 -38 32 -79q0 -29 -23.5 -46.5t-52.5 -17.5q-48 0 -84 48z" />
    <glyph glyph-name="afii10077" unicode="&#x43b;" horiz-adv-x="607" 
d="M391 415h-120q-37 0 -37 -37v-256q0 -61 -34 -95t-95 -34q-54 0 -74 7q-37 14 -37 57q0 42 27 55q19 10 65 10v255q0 99 44 138q41 38 141 38h200q49 0 67 -34q13 -24 13 -76v-332q0 -118 -80 -118q-48 0 -67 37q-13 27 -13 81v304z" />
    <glyph glyph-name="afii10078" unicode="&#x43c;" horiz-adv-x="780" 
d="M387 236h6l86 238q29 79 115 79q79 0 98 -84l82 -358q9 -39 9 -64q0 -27 -29 -45q-25 -15 -54 -15q-62 0 -80 89l-53 255l-99 -266q-29 -78 -78 -78t-78 78l-98 266l-54 -255q-19 -89 -80 -89q-29 0 -54 15q-29 18 -29 45q0 25 9 64l82 358q19 84 98 84q86 0 115 -79z
" />
    <glyph glyph-name="afii10079" unicode="&#x43d;" horiz-adv-x="605" 
d="M216 222v-111q0 -118 -79 -118q-82 0 -82 118v325q0 117 82 117q79 0 79 -117v-100h177v100q0 117 80 117t80 -117v-325q0 -118 -80 -118t-80 118v111h-177z" />
    <glyph glyph-name="afii10080" unicode="&#x43e;" horiz-adv-x="599" 
d="M26 273q0 123 76.5 206.5t197.5 83.5q123 0 198 -83t75 -207q0 -123 -74 -205q-77 -84 -199 -84q-121 0 -199 85q-75 82 -75 204zM193 275q0 -55 25 -96q30 -48 82 -48t82 48q25 41 25 96q0 54 -26 94q-30 46 -81 46q-52 0 -82 -46q-25 -39 -25 -94z" />
    <glyph glyph-name="afii10081" unicode="&#x43f;" horiz-adv-x="607" 
d="M391 415h-175v-304q0 -118 -80 -118q-81 0 -81 118v332q0 52 14 77q19 33 67 33h335q49 0 67 -34q13 -24 13 -76v-332q0 -118 -80 -118t-80 118v304z" />
    <glyph glyph-name="afii10082" unicode="&#x440;" horiz-adv-x="618" 
d="M218 30h-4v-140q0 -116 -77 -116q-82 0 -82 118v544q0 117 82 117q48 0 77 -51q49 55 133 55q112 0 182 -88q64 -82 64 -196q0 -85 -39 -156q-40 -75 -113 -111q-46 -23 -96 -23q-73 0 -127 47zM214 263q0 -55 25 -90q29 -40 82 -40t82 44q25 39 25 94q0 54 -26 92
q-29 44 -81 44q-44 0 -75.5 -29.5t-31.5 -114.5z" />
    <glyph glyph-name="afii10083" unicode="&#x441;" horiz-adv-x="507" 
d="M26 273q0 127 76 207.5t202 80.5q66 0 115 -20q66 -28 66 -84q0 -29 -19 -49t-48 -20q-19 0 -49.5 12.5t-64.5 12.5q-55 0 -85 -42q-27 -38 -27 -95q0 -60 28 -96q32 -40 90 -40q34 0 63 12t48 12q28 0 45.5 -20.5t17.5 -49.5q0 -49 -68 -83q-49 -24 -122 -24
q-122 0 -196 83q-72 80 -72 203z" />
    <glyph glyph-name="afii10084" unicode="&#x442;" horiz-adv-x="483" 
d="M161 415h-69q-101 0 -101 69t101 69h298q102 0 102 -69t-102 -69h-69v-304q0 -118 -80 -118t-80 118v304z" />
    <glyph glyph-name="afii10085" unicode="&#x443;" horiz-adv-x="494" 
d="M79 553q35 0 54 -23q13 -15 28 -55l92 -244l99 258q25 64 71 64q80 0 80 -77q0 -25 -13 -56l-247 -585q-28 -66 -71 -66q-36 0 -58 21t-22 57q0 24 14 55l66 145l-163 381q-9 21 -9 45q0 34 22.5 57t56.5 23z" />
    <glyph glyph-name="afii10086" unicode="&#x444;" horiz-adv-x="844" 
d="M496 424v-295h28q65 0 100 42q33 39 33 105t-33 105q-36 43 -100 43h-28zM499 0v-114q0 -112 -77 -112t-77 112v114q-101 0 -152 20q-79 31 -123 100t-44 156q0 89 43 157t124 100q51 20 152 20v119q0 111 77 111t77 -111v-119q100 0 151 -20q82 -32 125 -100t43 -157
q0 -88 -43 -155q-45 -70 -125 -101q-51 -20 -151 -20zM348 129v295h-28q-63 0 -98 -41.5t-35 -106.5t34.5 -106t98.5 -41h28z" />
    <glyph glyph-name="afii10087" unicode="&#x445;" horiz-adv-x="521" 
d="M260 172l-115 -137q-35 -42 -70 -42q-32 0 -55 24t-23 56q0 33 34 71l134 148l-113 115q-30 31 -30 65q0 32 22 57t53 25q37 0 67 -34l99 -114l90 110q31 38 66 38q34 0 58.5 -23t24.5 -57q0 -31 -36 -69l-107 -114l127 -143q22 -25 28 -36q10 -18 10 -44
q0 -31 -21.5 -53t-52.5 -22q-38 0 -74 42z" />
    <glyph glyph-name="afii10088" unicode="&#x446;" horiz-adv-x="624" 
d="M219 120h175v315q0 118 80 118t80 -118v-315q70 0 70 -69v-101q0 -79 -75 -79q-42 0 -51 49q-3 13 -3 80h-336q-48 0 -75 37q-25 34 -25 83v315q0 118 80 118t80 -118v-315z" />
    <glyph glyph-name="afii10089" unicode="&#x447;" horiz-adv-x="539" 
d="M260 326h63v123q0 104 80 104t80 -104v-352q0 -105 -80 -105q-41 0 -62 33q-18 28 -18 72v116q-101 0 -128 3q-81 7 -120 38q-47 37 -47 125v70q0 104 80 104t80 -104v-70q0 -34 20 -45q15 -8 52 -8z" />
    <glyph glyph-name="afii10090" unicode="&#x448;" horiz-adv-x="932" 
d="M219 114h157v322q0 117 80 117t80 -117v-322h157v321q0 118 80 118t80 -118v-321q0 -114 -99 -114h-596q-49 0 -75 34q-24 30 -24 80v321q0 118 80 118t80 -118v-321z" />
    <glyph glyph-name="afii10091" unicode="&#x449;" horiz-adv-x="923" 
d="M219 114h157v322q0 117 80 117t80 -117v-322h157v321q0 118 80 118t80 -118v-321q70 0 70 -63v-101q0 -79 -75 -79q-42 0 -51 49q-3 13 -3 80h-635q-48 0 -75 34q-25 31 -25 80v321q0 118 80 118t80 -118v-321z" />
    <glyph glyph-name="afii10092" unicode="&#x44a;" horiz-adv-x="639" 
d="M290 333q138 0 174 -6q110 -17 137 -87q12 -31 12 -74q0 -99 -75 -138q-54 -28 -165 -28h-152q-92 0 -92 105v328q-63 0 -78 4q-42 11 -42 55q0 61 83 61h117q50 0 68 -36q13 -25 13 -78v-106zM290 228v-123h65q92 0 92 61q0 39 -29 53q-19 9 -63 9h-65z" />
    <glyph glyph-name="afii10093" unicode="&#x44b;" horiz-adv-x="822" 
d="M216 333q140 0 173 -6q109 -17 134 -90q10 -30 10 -71q0 -100 -71 -138q-53 -28 -163 -28h-152q-92 0 -92 105v344q0 104 81 104q80 0 80 -104v-116zM216 228v-123h65q92 0 92 61q0 39 -29 53q-19 9 -63 9h-65zM767 436v-331q0 -51 -14 -75q-18 -30 -66 -30t-66 30
q-14 24 -14 75v331q0 117 80 117t80 -117z" />
    <glyph glyph-name="afii10094" unicode="&#x44c;" horiz-adv-x="565" 
d="M216 333q138 0 174 -6q110 -17 137 -87q12 -31 12 -74q0 -100 -75 -138q-54 -28 -165 -28h-152q-92 0 -92 105v344q0 104 81 104q80 0 80 -104v-116zM216 228v-123h65q92 0 92 61q0 39 -29 53q-19 9 -63 9h-65z" />
    <glyph glyph-name="afii10095" unicode="&#x44d;" horiz-adv-x="507" 
d="M481 277q0 -124 -71 -205q-74 -85 -197 -85q-84 0 -137 33t-53 74q0 28 18 49t45 21q19 0 48 -12t63 -12q89 0 112 85h-102q-78 0 -78 52q0 53 78 53h101q-26 83 -105 83q-35 0 -64 -12.5t-50 -12.5q-29 0 -48 20t-19 49q0 56 67 83q49 21 114 21q127 0 202.5 -78
t75.5 -206z" />
    <glyph glyph-name="afii10096" unicode="&#x44e;" horiz-adv-x="838" 
d="M293 225h-77v-116q0 -118 -80 -118q-81 0 -81 118v329q0 117 81 117q80 0 80 -117v-108h78q14 105 81.5 169t172.5 64q122 0 193 -86q66 -79 66 -204q0 -124 -67 -201q-70 -81 -192 -81q-106 0 -174 64t-81 170zM456 275q0 -136 92 -136q93 0 93 136q0 55 -19 92
q-24 48 -74 48t-74 -48q-18 -37 -18 -92z" />
    <glyph glyph-name="afii10097" unicode="&#x44f;" horiz-adv-x="576" 
d="M360 221h-36l-146 -190q-17 -22 -29 -29q-15 -9 -41 -9q-32 0 -51.5 20.5t-19.5 37.5q0 34 25 63l102 117q-124 26 -124 156q0 166 230 166h159q55 0 75 -25q17 -22 17 -79v-351q0 -105 -81 -105q-41 0 -62 33q-18 28 -18 72v123zM360 325v124h-65q-92 0 -92 -62t92 -62
h65z" />
    <glyph glyph-name="afii10071" unicode="&#x451;" horiz-adv-x="575" 
d="M190 228q5 -47 39 -72t83 -25q41 0 99 26.5t72 26.5q64 0 64 -63q0 -24 -18 -48q-32 -44 -102 -67q-59 -20 -123 -20q-120 0 -200 82.5t-80 203.5q0 120 76.5 205t195.5 85q112 0 188 -76t76 -188q0 -36 -31 -55q-26 -15 -65 -15h-274zM188 334h213q-3 42 -32.5 69
t-71.5 27q-43 0 -72 -26.5t-37 -69.5zM464 690q0 -82 -72 -82q-35 0 -53.5 23.5t-18.5 58.5q0 36 18.5 59.5t53.5 23.5q72 0 72 -83zM287 690q0 -82 -71 -82q-72 0 -72 82q0 83 72 83q71 0 71 -83z" />
    <glyph glyph-name="endash" unicode="&#x2013;" horiz-adv-x="526" 
d="M465 338q61 0 61 -53q0 -52 -61 -52h-404q-61 0 -61 52q0 53 61 53h404z" />
    <glyph glyph-name="emdash" unicode="&#x2014;" horiz-adv-x="1051" 
d="M979 338q72 0 72 -53q0 -52 -73 -52h-905q-73 0 -73 52q0 53 73 53h906z" />
    <glyph glyph-name="quoteleft" unicode="&#x2018;" horiz-adv-x="237" 
d="M106 598q21 8 37 8q34 0 54 -22t20 -56q0 -36 -25 -59t-62 -23q-46 0 -74 37q-25 34 -25 82q0 54 26.5 102t72.5 72q27 14 52 14q31 0 31 -28q0 -18 -16 -26q-47 -24 -62 -37q-28 -25 -29 -64z" />
    <glyph glyph-name="quoteright" unicode="&#x2019;" horiz-adv-x="237" 
d="M142 599q-19 -8 -37 -8q-33 0 -53.5 21t-20.5 54q0 37 24.5 61t61.5 24q49 0 76 -40q25 -34 25 -85q0 -39 -14 -71q-19 -42 -55 -75q-41 -36 -83 -36q-31 0 -31 27q0 18 16 27q51 28 62 37q28 25 29 64z" />
    <glyph glyph-name="quotesinglbase" unicode="&#x201a;" horiz-adv-x="237" 
d="M139 14q-22 -8 -38 -8q-34 0 -53.5 21t-19.5 55q0 37 24 60.5t61 23.5q48 0 76 -40q25 -35 25 -85q0 -38 -14 -71q-19 -44 -54 -75q-39 -36 -83 -36q-12 0 -21.5 8.5t-9.5 19.5q0 19 15 27q55 30 63 36q28 23 29 64z" />
    <glyph glyph-name="quotedblleft" unicode="&#x201c;" horiz-adv-x="463" 
d="M334 598q21 8 37 8q34 0 54 -22t20 -56q0 -36 -25 -59t-62 -23q-46 0 -74 37q-25 34 -25 82q0 54 26.5 102t72.5 72q27 14 52 14q30 0 30 -28q0 -18 -15 -26q-51 -28 -62 -37q-28 -25 -29 -64zM106 598q21 8 38 8q34 0 53.5 -21.5t19.5 -56.5q0 -36 -25 -59t-61 -23
q-46 0 -74 38q-26 34 -26 81q0 53 27.5 102t72.5 72q27 14 52 14q31 0 31 -28q0 -18 -16 -26q-49 -25 -63 -37q-28 -25 -29 -64z" />
    <glyph glyph-name="quotedblright" unicode="&#x201d;" horiz-adv-x="463" 
d="M142 599q-19 -8 -37 -8q-33 0 -53.5 21t-20.5 54q0 37 24.5 61t61.5 24q49 0 76 -40q25 -34 25 -85q0 -39 -14 -71q-19 -42 -55 -75q-41 -36 -83 -36q-31 0 -31 27q0 18 16 27q51 28 62 37q28 25 29 64zM370 599q-19 -8 -37 -8q-33 0 -53.5 21t-20.5 54q0 37 24.5 61
t61.5 24q49 0 76 -39q24 -35 24 -86t-27 -97t-72 -70q-28 -15 -52 -15q-31 0 -31 27q0 18 16 27q52 29 62 37q28 24 29 64z" />
    <glyph glyph-name="quotedblbase" unicode="&#x201e;" horiz-adv-x="463" 
d="M139 14q-22 -8 -38 -8q-34 0 -53.5 21t-19.5 55q0 37 24 60.5t61 23.5q48 0 76 -40q25 -35 25 -85q0 -38 -14 -71q-19 -44 -54 -75q-39 -36 -83 -36q-12 0 -21.5 8.5t-9.5 19.5q0 19 15 27q55 30 63 36q28 23 29 64zM364 14q-21 -8 -38 -8q-33 0 -52.5 21.5t-19.5 54.5
q0 37 24 60.5t61 23.5q48 0 76 -40q24 -35 24 -85q0 -52 -27.5 -98.5t-72.5 -69.5q-27 -14 -52 -14q-11 0 -20.5 8.5t-9.5 19.5q0 19 16 27q52 27 62 36q28 24 29 64z" />
    <glyph glyph-name="dagger" unicode="&#x2020;" horiz-adv-x="526" 
d="M333 529h87q80 0 80 -61q0 -58 -81 -58h-86v-424q0 -103 -70 -103t-70 103v424h-87q-80 0 -80 59q0 60 81 60h86v120q0 102 70 102t70 -102v-120z" />
    <glyph glyph-name="bullet" unicode="&#x2022;" horiz-adv-x="606" 
d="M154 382q0 62 43.5 105t105.5 43t105 -43t43 -105t-43.5 -105.5t-105.5 -43.5q-61 0 -104.5 44t-43.5 105z" />
    <glyph glyph-name="ellipsis" unicode="&#x2026;" horiz-adv-x="1051" 
d="M90 86q0 39 27.5 66.5t66.5 27.5t65.5 -27.5t26.5 -66.5t-26.5 -66t-65.5 -27q-40 0 -67 26.5t-27 66.5zM432 86q0 39 27.5 66.5t66.5 27.5t65.5 -27.5t26.5 -66.5t-26.5 -66t-65.5 -27q-40 0 -67 26.5t-27 66.5zM775 86q0 39 27.5 66.5t66.5 27.5t65.5 -27.5t26.5 -66.5
t-26.5 -66t-65.5 -27q-40 0 -67 26.5t-27 66.5z" />
    <glyph glyph-name="perthousand" unicode="&#x2030;" horiz-adv-x="1070" 
d="M10 576q0 66 45.5 114.5t111.5 48.5q67 0 112 -47.5t45 -115.5q0 -67 -45 -115t-112 -48q-66 0 -111.5 48t-45.5 115zM115 576q0 -21 15.5 -37.5t36.5 -16.5q23 0 38 15.5t15 38.5q0 24 -14.5 39t-38.5 15q-22 0 -37 -16t-15 -38zM393 154q0 66 45.5 114.5t111.5 48.5
q67 0 112 -47.5t45 -115.5q0 -67 -45 -115t-112 -48q-66 0 -111.5 48t-45.5 115zM498 154q0 -21 15.5 -37.5t36.5 -16.5q23 0 38 15.5t15 38.5q0 24 -14.5 39t-38.5 15q-22 0 -37 -16t-15 -38zM745 154q0 66 45.5 114.5t111.5 48.5q68 0 113 -47.5t45 -115.5
q0 -67 -45.5 -115t-112.5 -48q-66 0 -111.5 48t-45.5 115zM850 154q0 -21 15.5 -37.5t36.5 -16.5q23 0 38 15.5t15 38.5q0 24 -14.5 39t-38.5 15q-22 0 -37 -16t-15 -38zM174 -17q-25 0 -42 17t-17 42t16 53l339 592q33 57 72 57q25 0 42 -16t17 -41q0 -24 -18 -55
l-338 -591q-33 -58 -71 -58z" />
    <glyph glyph-name="quilsinglleft" unicode="&#x2039;" horiz-adv-x="280" 
d="M131 270l89 -65q20 -15 26 -24q8 -12 8 -34q0 -60 -42 -60q-19 0 -43 15q-90 56 -120 94q-25 32 -25 74q0 47 24 74q44 50 122 96q23 14 43 14q41 0 41 -60q0 -33 -34 -58z" />
    <glyph glyph-name="quilsinglright" unicode="&#x203a;" horiz-adv-x="280" 
d="M148 271l-87 65q-21 15 -26 24q-8 12 -8 34q0 60 42 60q19 0 41 -14q93 -60 122 -95q25 -30 25 -74q0 -48 -24 -74q-27 -29 -78 -66q-61 -44 -88 -44q-40 0 -40 60q0 32 34 58z" />
    <glyph glyph-name="afii61352" unicode="&#x2116;" horiz-adv-x="1209" 
d="M145 -9q-83 0 -83 118v518q0 112 77 112q47 0 88 -54l307 -406v342q0 118 83 118t83 -118v-531q0 -103 -76 -103q-50 0 -95 60l-301 398v-336q0 -118 -83 -118zM779 434q0 90 49.5 146t138.5 56t138 -55.5t49 -146.5q0 -90 -48 -143q-50 -56 -139 -56q-88 0 -138 55
t-50 144zM903 436q0 -95 64 -95q63 0 63 95q0 94 -63 94q-64 0 -64 -94zM859 40q-80 0 -80 58q0 56 81 56h214q80 0 80 -57q0 -36 -24 -48q-17 -9 -57 -9h-214z" />
    <glyph glyph-name="trademark" unicode="&#x2122;" horiz-adv-x="838" 
d="M145 733h166q38 0 38 -29q0 -27 -38 -27h-46v-179q0 -39 -39 -39q-36 0 -36 39v179h-45q-39 0 -39 27q0 29 39 29zM639 643l-61 -145q-10 -24 -30 -24q-21 0 -31 24l-61 145h-2v-145q0 -39 -34 -39t-34 39v188q0 47 49 47t68 -49l45 -117l44 119q17 47 66 47q50 0 50 -47
v-188q0 -39 -36 -39q-31 0 -31 39v145h-2z" />
    </font>
</defs>
</svg>
