<?xml version="1.0" standalone="no"?>
<!DOCTYPE svg PUBLIC "-//W3C//DTD SVG 20010904//EN"
 "http://www.w3.org/TR/2001/REC-SVG-20010904/DTD/svg10.dtd">
<svg version="1.0" xmlns="http://www.w3.org/2000/svg"
 width="512.000000pt" height="512.000000pt" viewBox="0 0 512.000000 512.000000"
 preserveAspectRatio="xMidYMid meet">
<metadata>
Created by potrace 1.11, written by Peter Selinger 2001-2013
</metadata>
<g transform="translate(0.000000,512.000000) scale(0.100000,-0.100000)"
fill="#000000" stroke="none">
<path d="M1224 4190 c-197 -14 -306 -57 -330 -130 -30 -91 -84 -1674 -87
-2571 l-2 -425 27 -41 c53 -81 164 -112 398 -113 74 -1 185 -5 245 -10 239
-20 380 -23 436 -10 84 19 186 71 275 138 122 92 191 190 243 347 43 128 61
253 68 455 15 452 -87 803 -291 1005 -67 66 -169 122 -271 151 -85 23 -342 30
-464 12 l-94 -14 6 205 c6 180 20 352 32 370 2 4 84 0 182 -7 246 -19 711 -21
741 -4 68 39 109 228 83 385 -26 155 -259 229 -811 257 -212 11 -223 11 -386
0z m468 -1763 c112 -39 180 -80 238 -144 91 -98 151 -299 154 -513 1 -109 -1
-118 -29 -175 -67 -133 -250 -205 -495 -193 -143 7 -223 49 -273 143 -19 34
-22 56 -21 140 0 55 8 153 17 219 10 65 22 187 28 270 12 170 19 198 61 228
93 65 181 72 320 25z"/>
</g>
</svg>
