<svg width="15" height="15" viewBox="0 0 15 15" fill="none" xmlns="http://www.w3.org/2000/svg">
<g clip-path="url(#clip0)">
<path d="M10.0177 1.71645C7.72941 -0.571823 4.00508 -0.571823 1.71681 1.71645C-0.570967 4.00521 -0.570967 7.72905 1.71681 10.0178C3.75457 12.0551 6.92829 12.2733 9.21507 10.6825C9.26319 10.9102 9.37331 11.1275 9.5504 11.3046L12.8829 14.637C13.3685 15.1217 14.1532 15.1217 14.6364 14.637C15.1215 14.1519 15.1215 13.3671 14.6364 12.8835L11.3039 9.55004C11.1278 9.37444 10.9101 9.26382 10.6824 9.2157C12.2742 6.92842 12.0559 3.7552 10.0177 1.71645ZM8.96556 8.96569C7.25717 10.6741 4.47682 10.6741 2.76892 8.96569C1.06153 7.2573 1.06153 4.47745 2.76892 2.76906C4.47682 1.06117 7.25717 1.06117 8.96556 2.76906C10.6739 4.47745 10.6739 7.2573 8.96556 8.96569Z" fill="black"/>
</g>
<defs>
<clipPath id="clip0">
<rect width="15" height="15" fill="white"/>
</clipPath>
</defs>
</svg>
