<svg width="16" height="16" viewBox="0 0 16 16" fill="none" xmlns="http://www.w3.org/2000/svg">
<path d="M9.80918 11.7719C11.0998 9.63125 12.7311 6.62187 12.7311 5.075C12.7311 2.46562 10.6092 0.34375 7.9998 0.34375C5.39043 0.34375 3.26855 2.46562 3.26855 5.075C3.26855 6.62187 4.8998 9.63125 6.19043 11.7719C4.65918 11.8875 1.1748 12.3031 1.1748 13.6812C1.1748 15.0375 4.7123 15.6562 8.00293 15.6562C11.2904 15.6562 14.8311 15.0375 14.8311 13.6812C14.8279 12.3031 11.3404 11.8875 9.80918 11.7719ZM3.92168 5.075C3.92168 2.825 5.75293 0.99375 7.9998 0.99375C10.2498 0.99375 12.0811 2.825 12.0811 5.075C12.0811 7.04062 8.9498 11.9719 7.9998 13.4219C7.0498 11.9719 3.92168 7.04062 3.92168 5.075ZM7.9998 15.0031C4.00293 15.0031 1.8248 14.1281 1.8248 13.6781C1.8248 13.3313 3.2623 12.5844 6.5748 12.3938C7.19668 13.3969 7.66855 14.1062 7.73105 14.1906C7.81543 14.3031 8.0623 14.4375 8.27168 14.1906C8.33731 14.1125 8.80606 13.3969 9.42793 12.3938C12.7404 12.5844 14.1779 13.3281 14.1779 13.6781C14.1748 14.1313 11.9967 15.0031 7.9998 15.0031Z" fill="#231F20"/>
<path d="M10.0592 5.075C10.0592 3.9375 9.13731 3.01562 7.99981 3.01562C6.86231 3.01562 5.94043 3.9375 5.94043 5.075C5.94043 6.2125 6.86231 7.13438 7.99981 7.13438C9.13731 7.13438 10.0592 6.2125 10.0592 5.075ZM6.59043 5.075C6.59043 4.29687 7.22168 3.66563 7.99981 3.66563C8.77793 3.66563 9.40918 4.29687 9.40918 5.075C9.40918 5.85312 8.77793 6.48438 7.99981 6.48438C7.22168 6.48438 6.59043 5.85312 6.59043 5.075Z" fill="#231F20"/>
</svg>
