<svg width="15" height="15" viewBox="0 0 15 15" fill="none" xmlns="http://www.w3.org/2000/svg">
<path d="M7.5 0C3.3645 0 0 3.3645 0 7.5C0 11.6355 3.3645 15 7.5 15C11.6355 15 15 11.6355 15 7.5C15 3.3645 11.6355 0 7.5 0ZM7.5 14.5C3.64025 14.5 0.5 11.3597 0.5 7.5C0.5 3.64025 3.64025 0.5 7.5 0.5C11.3597 0.5 14.5 3.64025 14.5 7.5C14.5 11.3597 11.3597 14.5 7.5 14.5Z" fill="black"/>
<path d="M7.5 1.5C7.362 1.5 7.25 1.61175 7.25 1.75V7.5H3.5C3.362 7.5 3.25 7.61175 3.25 7.75C3.25 7.88825 3.362 8 3.5 8H7.5C7.638 8 7.75 7.88825 7.75 7.75V1.75C7.75 1.61175 7.638 1.5 7.5 1.5Z" fill="black"/>
</svg>
