<svg width="16" height="16" viewBox="0 0 16 16" fill="none" xmlns="http://www.w3.org/2000/svg">
<g clip-path="url(#clip0)">
<path d="M15.99 13.1685C15.9391 12.7841 15.7172 12.4526 15.3811 12.2591L11.4339 9.98641C10.9504 9.70805 10.3371 9.78909 9.94249 10.1837L9.16501 10.9611C8.95812 11.1681 8.6308 11.1864 8.40379 11.0037C7.79086 10.5105 7.18737 9.96771 6.6101 9.39041C6.03283 8.81314 5.49005 8.20968 4.99683 7.59671C4.81413 7.36968 4.83241 7.04239 5.03937 6.83547L5.81682 6.05798C6.21139 5.66345 6.29253 5.05021 6.0141 4.56666L3.74142 0.619399C3.5479 0.283302 3.21644 0.0613798 2.83196 0.0105125C2.44745 -0.0404584 2.06964 0.087781 1.7954 0.362022L0.623901 1.53356C-0.193742 2.35124 -0.206873 3.84691 0.586926 5.74514C1.35021 7.57035 2.77463 9.57961 4.59773 11.4028C6.4209 13.2259 8.43016 14.6503 10.2554 15.4136C11.1898 15.8043 12.0265 15.9996 12.733 15.9996C13.4617 15.9996 14.0518 15.7918 14.467 15.3766L15.6385 14.2051C15.9127 13.9308 16.0408 13.553 15.99 13.1685ZM11.1752 10.4356L15.1225 12.7083C15.3177 12.8207 15.4466 13.0132 15.4761 13.2365C15.5009 13.4239 15.4522 13.6085 15.3419 13.7571L10.096 10.7632L10.309 10.5502C10.5382 10.3211 10.8945 10.2739 11.1752 10.4356ZM2.76395 0.524403C2.98729 0.553949 3.17981 0.682845 3.29219 0.878055L5.56487 4.82531C5.72659 5.10615 5.67946 5.46236 5.45031 5.69147L5.25462 5.88717L2.24426 0.658655C2.36731 0.56753 2.51449 0.518045 2.66792 0.518045C2.69975 0.518045 2.73185 0.520153 2.76395 0.524403ZM14.1004 15.0101C13.4508 15.6597 12.1223 15.6324 10.4554 14.9354C8.69092 14.1975 6.74086 12.8128 4.96431 11.0362C3.18776 9.25968 1.80301 7.30958 1.06515 5.54516C0.368044 3.87826 0.340848 2.54969 0.990442 1.90007L1.86013 1.03035L4.87501 6.26677L4.67282 6.46896C4.27836 6.86346 4.24401 7.48797 4.59296 7.92172C5.0978 8.54913 5.65316 9.16658 6.24352 9.75695C6.83396 10.3473 7.45141 10.9027 8.07879 11.4075C8.51247 11.7565 9.13698 11.7222 9.53155 11.3276L9.71601 11.1432L14.9692 14.1413L14.1004 15.0101Z" fill="black"/>
</g>
<defs>
<clipPath id="clip0">
<rect width="16" height="16" fill="white"/>
</clipPath>
</defs>
</svg>
